<svg width="295" height="219" viewBox="0 0 295 219" fill="none" xmlns="http://www.w3.org/2000/svg">
<path d="M115.856 64.8291C115.947 64.9886 115.992 65.1823 115.992 65.4102C115.992 65.752 115.867 66.0482 115.616 66.2988C115.389 66.5495 115.081 66.6748 114.694 66.6748C114.443 66.6748 114.215 66.6178 114.01 66.5039C113.828 66.39 113.68 66.2191 113.566 65.9912C113.133 65.1481 112.745 64.0999 112.404 62.8467C112.085 61.5706 111.8 60.1579 111.549 58.6084C111.321 57.0589 111.128 55.3955 110.968 53.6182C110.831 51.818 110.717 49.9609 110.626 48.0469C108.917 48.2747 106.992 48.5254 104.85 48.7988C102.731 49.0723 100.304 49.3913 97.5696 49.7559C95.6555 50.0293 93.7073 50.2686 91.7249 50.4736C86.8486 55.7829 81.7102 59.8161 76.3098 62.5732C70.9322 65.3076 65.5318 66.6748 60.1086 66.6748C57.6933 66.6748 55.5969 66.4355 53.8196 65.957C52.065 65.5013 50.6067 64.9886 49.4446 64.4189C48.3053 63.8265 47.4508 63.2796 46.8811 62.7783C46.2887 62.277 45.9696 62.0036 45.9241 61.958C45.6962 61.7301 45.5823 61.4339 45.5823 61.0693C45.5823 60.7048 45.7076 60.3971 45.9583 60.1465C46.2089 59.8958 46.5051 59.7705 46.8469 59.7705C47.2343 59.7705 47.5533 59.9072 47.804 60.1807C47.8495 60.2262 48.123 60.4655 48.6243 60.8984C49.1256 61.3086 49.8661 61.7529 50.8459 62.2314C51.8486 62.71 53.1132 63.1429 54.6399 63.5303C56.1666 63.9176 57.9781 64.1113 60.0745 64.1113C62.9456 64.1113 65.6913 63.724 68.3118 62.9492C70.9322 62.1745 73.4045 61.1719 75.7288 59.9414C78.0758 58.6882 80.2519 57.264 82.2571 55.6689C84.2851 54.0739 86.1194 52.4561 87.76 50.8154C86.1422 50.9521 84.5357 51.0547 82.9407 51.123C81.3456 51.1914 79.7734 51.2256 78.2239 51.2256C75.1705 51.2256 72.2652 51.0547 69.5081 50.7129C66.7509 50.3711 64.3241 49.8014 62.2278 49.0039C60.1314 48.1836 58.4566 47.1012 57.2034 45.7568C55.9729 44.4124 55.3577 42.7376 55.3577 40.7324C55.3577 39.821 55.54 38.9095 55.9045 37.998C56.2919 37.0866 56.7476 36.2663 57.2717 35.5371C57.7958 34.7852 58.3427 34.1813 58.9124 33.7256C59.482 33.2471 59.9719 33.0078 60.3821 33.0078C60.7011 33.0078 60.9973 33.1217 61.2708 33.3496C61.5442 33.5775 61.6809 33.8851 61.6809 34.2725C61.6809 34.4775 61.6353 34.6826 61.5442 34.8877C61.453 35.07 61.3163 35.2181 61.134 35.332C61.0885 35.3776 60.8948 35.5371 60.553 35.8105C60.2112 36.084 59.8466 36.46 59.4592 36.9385C59.0719 37.3942 58.7187 37.9525 58.3997 38.6133C58.0806 39.2513 57.9211 39.9463 57.9211 40.6982C57.9211 41.9971 58.3655 43.1478 59.2542 44.1504C60.1656 45.1302 61.4758 45.9619 63.1848 46.6455C64.9166 47.3063 67.0357 47.8076 69.5422 48.1494C72.0487 48.4912 74.9084 48.6621 78.1213 48.6621C79.967 48.6621 81.9153 48.6051 83.9661 48.4912C86.0168 48.3773 88.1816 48.2064 90.4602 47.9785C91.554 46.7708 92.5224 45.6315 93.3655 44.5605C94.2086 43.4896 94.9264 42.5326 95.5188 41.6895C96.4986 40.2995 97.524 38.8184 98.595 37.2461C99.6659 35.6738 100.726 34.0788 101.774 32.4609C102.845 30.8431 103.881 29.248 104.884 27.6758C105.909 26.0807 106.866 24.5882 107.755 23.1982C108.644 21.7855 109.441 20.5094 110.148 19.3701C110.854 18.208 111.435 17.251 111.891 16.499C112.028 15.8838 112.233 15.3255 112.506 14.8242C112.78 14.3001 113.224 14.0381 113.839 14.0381C114.181 14.0381 114.511 14.1862 114.83 14.4824C115.149 14.7559 115.309 15.109 115.309 15.542C115.309 15.861 115.195 16.2028 114.967 16.5674C114.739 16.932 114.523 17.2396 114.318 17.4902C114.249 17.9232 114.135 18.846 113.976 20.2588C113.839 21.6715 113.691 23.4033 113.531 25.4541C113.395 27.4821 113.269 29.7266 113.156 32.1875C113.064 34.6257 113.019 37.098 113.019 39.6045C113.019 40.5387 113.019 41.4616 113.019 42.373C113.019 43.2845 113.042 44.2074 113.087 45.1416C116.505 44.7087 119 44.4124 120.573 44.2529C122.145 44.0706 122.976 43.9795 123.068 43.9795C123.364 43.9795 123.649 44.1048 123.922 44.3555C124.218 44.5833 124.366 44.891 124.366 45.2783C124.366 45.5973 124.253 45.8822 124.025 46.1328C123.82 46.3607 123.546 46.4974 123.204 46.543C122.794 46.5885 122.316 46.6455 121.769 46.7139C121.222 46.7822 120.55 46.862 119.752 46.9531C118.955 47.0443 118.02 47.1582 116.949 47.2949C115.878 47.4089 114.625 47.557 113.19 47.7393C113.258 49.6077 113.361 51.4079 113.497 53.1396C113.657 54.8486 113.839 56.4437 114.044 57.9248C114.272 59.4059 114.534 60.7389 114.83 61.9238C115.127 63.1087 115.468 64.0771 115.856 64.8291ZM97.2278 47.1924C99.9166 46.8278 102.355 46.5088 104.542 46.2354C106.753 45.9391 108.746 45.6771 110.524 45.4492C110.501 44.4694 110.478 43.4896 110.455 42.5098C110.455 41.5299 110.455 40.5387 110.455 39.5361C110.455 36.3232 110.512 33.2585 110.626 30.3418C110.74 27.4023 110.9 24.8503 111.105 22.6855C110.193 24.1211 109.179 25.7161 108.063 27.4707C106.969 29.2025 105.83 30.9798 104.645 32.8027C103.46 34.6029 102.264 36.3916 101.056 38.1689C99.8482 39.9463 98.6975 41.6097 97.6038 43.1592C97.0569 43.9339 96.4986 44.6859 95.929 45.415C95.3593 46.1442 94.7896 46.862 94.22 47.5684C94.7213 47.5228 95.2112 47.4658 95.6897 47.3975C96.191 47.3291 96.7037 47.2607 97.2278 47.1924ZM155.197 55.5322C155.128 55.6689 154.98 55.9538 154.752 56.3867C154.524 56.7969 154.228 57.2868 153.864 57.8564C153.499 58.4033 153.066 58.9958 152.565 59.6338C152.063 60.249 151.517 60.8187 150.924 61.3428C150.332 61.8669 149.694 62.2998 149.01 62.6416C148.326 62.9834 147.62 63.1543 146.891 63.1543C145.706 63.1543 144.703 62.9492 143.883 62.5391C143.063 62.1061 142.391 61.6276 141.866 61.1035C141.502 61.901 141.058 62.6302 140.533 63.291C140.009 63.9518 139.428 64.5215 138.79 65C138.152 65.5013 137.469 65.8887 136.74 66.1621C136.033 66.4355 135.304 66.5723 134.552 66.5723C133.162 66.5723 131.977 66.1621 130.997 65.3418C130.017 64.5215 129.197 63.4277 128.536 62.0605C127.898 60.6706 127.397 59.0641 127.032 57.2412C126.668 55.4183 126.383 53.5042 126.178 51.499C125.996 49.4938 125.882 47.4658 125.836 45.415C125.791 43.3643 125.768 41.416 125.768 39.5703C125.768 36.0384 125.87 32.985 126.075 30.4102C126.281 27.8125 126.554 25.6136 126.896 23.8135C127.26 21.9906 127.67 20.5208 128.126 19.4043C128.605 18.265 129.106 17.3877 129.63 16.7725C130.154 16.1344 130.69 15.7015 131.237 15.4736C131.783 15.2458 132.319 15.1318 132.843 15.1318C133.686 15.1318 134.427 15.3825 135.065 15.8838C135.726 16.3851 136.272 17.0915 136.705 18.0029C137.161 18.8916 137.503 19.974 137.731 21.25C137.959 22.526 138.073 23.9274 138.073 25.4541C138.073 27.8923 137.81 30.4102 137.286 33.0078C136.762 35.6055 136.079 38.2031 135.236 40.8008C134.415 43.3757 133.492 45.9163 132.467 48.4229C131.442 50.9066 130.428 53.265 129.425 55.498C129.562 56.6146 129.767 57.6855 130.04 58.7109C130.314 59.7135 130.667 60.6136 131.1 61.4111C131.533 62.1859 132.045 62.8125 132.638 63.291C133.23 63.7467 133.914 63.9746 134.689 63.9746C135.463 63.9746 136.193 63.7581 136.876 63.3252C137.56 62.8695 138.152 62.2884 138.654 61.582C139.155 60.8529 139.542 60.0326 139.816 59.1211C140.112 58.2096 140.26 57.2754 140.26 56.3184C140.26 55.6803 140.192 55.0423 140.055 54.4043C139.941 53.7435 139.747 53.1624 139.474 52.6611C139.223 52.137 138.904 51.7155 138.517 51.3965C138.129 51.0775 137.662 50.918 137.115 50.918C136.705 50.918 136.386 51.0091 136.158 51.1914C135.931 51.3509 135.76 51.5446 135.646 51.7725C135.532 51.9775 135.463 52.1826 135.441 52.3877C135.418 52.5928 135.406 52.7295 135.406 52.7979C135.406 53.1169 135.475 53.4359 135.612 53.7549C135.748 54.0739 136.01 54.3587 136.398 54.6094C136.785 54.8828 136.979 55.2588 136.979 55.7373C136.979 56.1247 136.842 56.4323 136.569 56.6602C136.318 56.888 136.033 57.002 135.714 57.002C135.258 57.002 134.848 56.8652 134.484 56.5918C134.142 56.3184 133.846 55.9766 133.595 55.5664C133.344 55.1335 133.151 54.6777 133.014 54.1992C132.877 53.7207 132.809 53.2764 132.809 52.8662C132.809 52.2054 132.923 51.6016 133.151 51.0547C133.378 50.485 133.686 50.0065 134.073 49.6191C134.484 49.209 134.939 48.9014 135.441 48.6963C135.965 48.4684 136.512 48.3545 137.081 48.3545C138.061 48.3545 138.904 48.5824 139.611 49.0381C140.34 49.4938 140.944 50.0977 141.422 50.8496C141.901 51.6016 142.254 52.4561 142.482 53.4131C142.71 54.3701 142.823 55.3385 142.823 56.3184C142.823 56.888 142.789 57.4463 142.721 57.9932C142.812 58.1755 142.96 58.4147 143.165 58.7109C143.37 59.0072 143.644 59.292 143.986 59.5654C144.327 59.8389 144.738 60.0781 145.216 60.2832C145.695 60.4883 146.253 60.5908 146.891 60.5908C147.438 60.5908 147.996 60.3857 148.566 59.9756C149.158 59.5426 149.716 59.0186 150.24 58.4033C150.787 57.7653 151.289 57.0931 151.744 56.3867C152.2 55.6576 152.576 54.9854 152.872 54.3701C152.986 54.1423 153.146 53.9714 153.351 53.8574C153.556 53.7207 153.784 53.6523 154.034 53.6523C154.422 53.6523 154.729 53.7891 154.957 54.0625C155.208 54.3359 155.333 54.6436 155.333 54.9854C155.333 55.1221 155.288 55.3044 155.197 55.5322ZM128.776 51.123C129.55 49.209 130.337 47.2038 131.134 45.1074C131.932 42.9883 132.649 40.835 133.287 38.6475C133.925 36.46 134.449 34.2497 134.86 32.0166C135.27 29.7835 135.475 27.5846 135.475 25.4199C135.475 24.5996 135.429 23.7451 135.338 22.8564C135.27 21.945 135.133 21.1133 134.928 20.3613C134.723 19.6094 134.438 18.9827 134.073 18.4814C133.732 17.9801 133.287 17.7295 132.74 17.7295C132.558 17.7295 132.319 17.8548 132.023 18.1055C131.749 18.3333 131.453 18.7549 131.134 19.3701C130.815 19.9626 130.496 20.7943 130.177 21.8652C129.858 22.9362 129.562 24.3034 129.288 25.9668C129.038 27.6074 128.821 29.5898 128.639 31.9141C128.479 34.2383 128.4 36.9727 128.4 40.1172C128.4 41.1654 128.411 42.2363 128.434 43.3301C128.457 44.401 128.479 45.4264 128.502 46.4062C128.548 47.3861 128.593 48.2861 128.639 49.1064C128.684 49.9268 128.73 50.599 128.776 51.123ZM168.663 61.2402C168.094 61.2402 167.592 61.1947 167.159 61.1035C166.818 61.7871 166.407 62.4251 165.929 63.0176C165.45 63.5872 164.892 64.0885 164.254 64.5215C163.639 64.9544 162.944 65.2962 162.169 65.5469C161.394 65.7975 160.551 65.9229 159.64 65.9229C158.569 65.9229 157.589 65.7292 156.7 65.3418C155.812 64.9772 155.037 64.4645 154.376 63.8037C153.715 63.1201 153.203 62.3112 152.838 61.377C152.474 60.4199 152.291 59.3717 152.291 58.2324C152.291 56.7741 152.553 55.5094 153.077 54.4385C153.601 53.3447 154.205 52.4447 154.889 51.7383C155.573 51.0091 156.256 50.4736 156.94 50.1318C157.623 49.7673 158.136 49.585 158.478 49.585C158.865 49.585 159.15 49.6875 159.332 49.8926C159.537 50.0977 159.64 50.3711 159.64 50.7129C159.64 51.1003 159.515 51.3965 159.264 51.6016C159.036 51.7839 158.74 51.9661 158.375 52.1484C158.011 52.3307 157.623 52.5928 157.213 52.9346C156.803 53.2536 156.416 53.6637 156.051 54.165C155.709 54.6663 155.424 55.2588 155.197 55.9424C154.969 56.626 154.855 57.3893 154.855 58.2324C154.855 58.9844 154.969 59.6908 155.197 60.3516C155.424 60.9896 155.755 61.5479 156.188 62.0264C156.621 62.4821 157.133 62.8467 157.726 63.1201C158.318 63.3708 158.979 63.4961 159.708 63.4961C161.007 63.4961 162.078 63.1999 162.921 62.6074C163.787 61.9922 164.448 61.2174 164.904 60.2832C163.559 59.5768 162.454 58.5742 161.588 57.2754C160.722 55.9766 160.289 54.5182 160.289 52.9004C160.289 51.6016 160.597 50.542 161.212 49.7217C161.85 48.9014 162.682 48.4912 163.707 48.4912C164.323 48.4912 164.904 48.6393 165.45 48.9355C165.997 49.2318 166.476 49.6989 166.886 50.3369C167.319 50.9749 167.661 51.7952 167.911 52.7979C168.162 53.8005 168.287 54.9967 168.287 56.3867C168.287 57.1159 168.196 57.8792 168.014 58.6768C168.151 58.6995 168.287 58.7109 168.424 58.7109C168.561 58.7109 168.709 58.7109 168.868 58.7109C169.643 58.7109 170.338 58.6198 170.953 58.4375C171.569 58.2552 172.127 57.9818 172.628 57.6172C173.129 57.2526 173.574 56.7855 173.961 56.2158C174.371 55.6462 174.759 54.9854 175.123 54.2334C175.192 54.0967 175.34 53.9714 175.568 53.8574C175.795 53.7207 176.023 53.6523 176.251 53.6523C176.547 53.6523 176.821 53.7777 177.072 54.0283C177.345 54.2562 177.482 54.5638 177.482 54.9512C177.482 55.1335 177.436 55.3385 177.345 55.5664C177.254 55.7715 177.163 55.9652 177.072 56.1475C176.684 56.8311 176.228 57.4919 175.704 58.1299C175.203 58.7451 174.599 59.292 173.893 59.7705C173.209 60.2262 172.434 60.5908 171.569 60.8643C170.703 61.1377 169.734 61.263 168.663 61.2402ZM162.819 52.627C162.819 53.0599 162.876 53.5156 162.99 53.9941C163.103 54.4727 163.274 54.9512 163.502 55.4297C163.753 55.8854 164.049 56.3298 164.391 56.7627C164.755 57.1729 165.177 57.526 165.656 57.8223C165.724 57.3438 165.758 56.8766 165.758 56.4209C165.758 55.8057 165.712 55.179 165.621 54.541C165.53 53.903 165.393 53.3219 165.211 52.7979C165.052 52.251 164.847 51.818 164.596 51.499C164.345 51.1572 164.049 50.9863 163.707 50.9863C163.571 50.9863 163.388 51.0889 163.16 51.2939C162.933 51.499 162.819 51.9434 162.819 52.627ZM186.403 61.1719C185.605 62.4707 184.671 63.4961 183.6 64.248C182.552 65 181.492 65.376 180.421 65.376C179.555 65.376 178.781 65.2165 178.097 64.8975C177.413 64.5785 176.821 64.1341 176.32 63.5645C175.818 62.972 175.431 62.2656 175.157 61.4453C174.907 60.625 174.781 59.7021 174.781 58.6768C174.781 57.0817 174.93 55.6689 175.226 54.4385C175.545 53.208 175.887 52.1826 176.251 51.3623C176.616 50.5192 176.958 49.8812 177.277 49.4482C177.596 49.0153 177.755 48.7988 177.755 48.7988C177.869 48.6621 178.006 48.5596 178.165 48.4912C178.348 48.4229 178.53 48.3887 178.712 48.3887C179.077 48.3887 179.373 48.5254 179.601 48.7988C179.851 49.0495 179.977 49.3457 179.977 49.6875C179.977 49.8242 179.943 49.9609 179.874 50.0977C179.829 50.2344 179.772 50.3711 179.703 50.5078C179.589 50.7129 179.407 51.0319 179.156 51.4648C178.906 51.875 178.644 52.4219 178.37 53.1055C178.097 53.7891 177.858 54.598 177.653 55.5322C177.448 56.4437 177.345 57.4919 177.345 58.6768C177.345 60.0212 177.607 61.0465 178.131 61.7529C178.678 62.4365 179.441 62.7783 180.421 62.7783C180.831 62.7783 181.298 62.653 181.823 62.4023C182.369 62.1289 182.893 61.7188 183.395 61.1719C183.919 60.625 184.375 59.93 184.762 59.0869C185.149 58.2438 185.4 57.2526 185.514 56.1133L186.027 50.2344C186.072 49.8926 186.22 49.6077 186.471 49.3799C186.722 49.152 187.018 49.0381 187.36 49.0381C187.747 49.0381 188.055 49.1862 188.282 49.4824C188.51 49.7559 188.624 50.0749 188.624 50.4395L188.18 56.1133C188.134 56.5918 188.146 57.2184 188.214 57.9932C188.305 58.7679 188.476 59.5312 188.727 60.2832C188.977 61.0352 189.353 61.6846 189.855 62.2314C190.356 62.7555 191.017 63.0176 191.837 63.0176C192.43 63.0176 193.011 62.8695 193.58 62.5732C194.15 62.2542 194.697 61.8441 195.221 61.3428C195.745 60.8415 196.224 60.2832 196.656 59.668C197.112 59.0299 197.522 58.3919 197.887 57.7539C198.274 57.1159 198.605 56.512 198.878 55.9424C199.152 55.3499 199.379 54.8486 199.562 54.4385C199.676 54.1878 199.835 53.9941 200.04 53.8574C200.245 53.7207 200.473 53.6523 200.724 53.6523C201.134 53.6523 201.453 53.7891 201.681 54.0625C201.909 54.3359 202.023 54.6322 202.023 54.9512C202.023 55.1335 201.989 55.3044 201.92 55.4639C201.829 55.6462 201.647 56.0335 201.373 56.626C201.123 57.1956 200.781 57.8564 200.348 58.6084C199.938 59.3376 199.436 60.1123 198.844 60.9326C198.252 61.7529 197.591 62.5163 196.862 63.2227C196.132 63.9062 195.335 64.4759 194.469 64.9316C193.626 65.3646 192.714 65.5811 191.735 65.5811C190.39 65.5811 189.274 65.2051 188.385 64.4531C187.496 63.6784 186.836 62.5846 186.403 61.1719ZM227.281 30.7861C227.281 31.1507 227.156 31.4469 226.906 31.6748C226.655 31.8799 226.347 31.9824 225.983 31.9824H208.654V32.3584C208.654 33.7484 208.551 35.2295 208.346 36.8018C208.141 38.374 207.856 39.9463 207.491 41.5186C207.15 43.068 206.751 44.5833 206.295 46.0645C205.862 47.5456 205.406 48.9128 204.928 50.166C204.472 51.4193 204.017 52.513 203.561 53.4473C203.105 54.3587 202.695 55.0423 202.33 55.498C202.627 56.5462 202.98 57.526 203.39 58.4375C203.8 59.3262 204.256 60.1123 204.757 60.7959C205.281 61.4567 205.839 61.9808 206.432 62.3682C207.024 62.7555 207.662 62.9492 208.346 62.9492C209.143 62.9492 209.93 62.6188 210.704 61.958C211.502 61.2744 212.231 60.4769 212.892 59.5654C213.575 58.6312 214.168 57.6969 214.669 56.7627C215.193 55.8057 215.569 55.0423 215.797 54.4727C216.025 53.9258 216.424 53.6523 216.993 53.6523C217.381 53.6523 217.688 53.7891 217.916 54.0625C218.167 54.3359 218.292 54.6322 218.292 54.9512C218.292 55.1107 218.258 55.2702 218.19 55.4297C218.121 55.5892 217.95 55.9538 217.677 56.5234C217.426 57.0931 217.085 57.7539 216.652 58.5059C216.241 59.2578 215.752 60.0553 215.182 60.8984C214.635 61.7188 214.008 62.4707 213.302 63.1543C212.618 63.8379 211.878 64.4076 211.08 64.8633C210.283 65.319 209.44 65.5469 208.551 65.5469C206.979 65.5469 205.566 65.0342 204.313 64.0088C203.059 62.9834 201.989 61.5479 201.1 59.7021C200.234 57.8564 199.573 55.6689 199.117 53.1396C198.662 50.6104 198.434 47.8418 198.434 44.834C198.434 44.082 198.445 43.2048 198.468 42.2021C198.491 41.1768 198.536 40.1058 198.605 38.9893C198.673 37.8499 198.776 36.6878 198.912 35.5029C199.049 34.2952 199.231 33.1217 199.459 31.9824H187.189C186.824 31.9824 186.517 31.8799 186.266 31.6748C186.015 31.4469 185.89 31.1507 185.89 30.7861C185.89 30.4215 186.015 30.1367 186.266 29.9316C186.517 29.7038 186.824 29.5898 187.189 29.5898H200.04C200.268 28.7695 200.53 28.0176 200.826 27.334C201.145 26.6504 201.499 26.0579 201.886 25.5566C202.296 25.0553 202.74 24.668 203.219 24.3945C203.72 24.0983 204.267 23.9502 204.86 23.9502C205.429 23.9502 205.919 24.0983 206.329 24.3945C206.762 24.668 207.127 25.0553 207.423 25.5566C207.719 26.0579 207.947 26.6504 208.107 27.334C208.289 28.0176 208.426 28.7695 208.517 29.5898H225.983C226.347 29.5898 226.655 29.7038 226.906 29.9316C227.156 30.1367 227.281 30.4215 227.281 30.7861ZM201.544 52.0801C202.228 50.5762 202.843 48.9583 203.39 47.2266C203.96 45.472 204.438 43.7061 204.825 41.9287C205.236 40.1514 205.543 38.4082 205.748 36.6992C205.976 34.9902 206.09 33.418 206.09 31.9824H202.057C201.738 33.3952 201.476 35.1497 201.271 37.2461C201.088 39.3197 200.997 41.849 200.997 44.834C200.997 46.4974 201.043 47.8988 201.134 49.0381C201.225 50.1546 201.362 51.1686 201.544 52.0801ZM204.723 26.5137C204.518 26.5137 204.222 26.7415 203.834 27.1973C203.447 27.6302 203.059 28.4277 202.672 29.5898H205.953C205.839 28.6328 205.669 27.8809 205.441 27.334C205.236 26.7871 204.996 26.5137 204.723 26.5137ZM202.091 54.541V54.5752V54.541Z" fill="white"/>
<line x1="1.50085" y1="218.001" x2="1.50085" y2="55.2383" stroke="white" stroke-width="2"/>
<line x1="293.497" y1="218.001" x2="293.497" y2="55.2383" stroke="white" stroke-width="2"/>
<line x1="2" y1="216.507" x2="293.998" y2="216.507" stroke="white" stroke-width="2"/>
<line x1="2.00085" y1="55.2263" x2="42.0003" y2="55.2263" stroke="white" stroke-width="2"/>
<line x1="221" y1="55" x2="295" y2="55" stroke="white" stroke-width="2"/>
<path d="M56.0002 166.568C67.1061 162.501 79.6896 165.187 91.2738 163.824" stroke="white" stroke-width="3" stroke-linecap="round"/>
<path d="M61.26 109.7L61.54 112.18H61.62L61.94 109.66L64.6 102H66.52L69.14 109.7L69.46 112.18H69.56L69.86 109.66L71.72 102H74.76L70.56 116.1H68.56L65.84 108.48L65.48 106.32H65.34L64.98 108.5L62.28 116.1H60.18L56 102H59.24L61.26 109.7ZM78.0695 102H87.0895V104.6H81.0295V107.64H86.5295V110.24H81.0295V113.4H87.1895V116H78.0695V102ZM90.9377 103.16C90.9377 102.76 91.0777 102.44 91.3577 102.2C91.6377 101.947 91.991 101.82 92.4177 101.82C92.951 101.82 93.371 101.987 93.6777 102.32C93.9843 102.653 94.1377 103.08 94.1377 103.6C94.1377 104.16 94.0443 104.633 93.8577 105.02C93.6843 105.393 93.4643 105.707 93.1977 105.96C92.9443 106.213 92.6777 106.413 92.3977 106.56C92.131 106.693 91.8977 106.787 91.6977 106.84L90.9977 105.66C91.291 105.553 91.5443 105.407 91.7577 105.22C91.971 105.02 92.091 104.767 92.1177 104.46C91.8377 104.487 91.571 104.387 91.3177 104.16C91.0643 103.933 90.9377 103.6 90.9377 103.16ZM98.2805 102.14C98.6005 102.087 98.9471 102.04 99.3205 102C99.7071 101.947 100.094 101.907 100.48 101.88C100.867 101.853 101.24 101.833 101.6 101.82C101.974 101.807 102.314 101.8 102.62 101.8C103.327 101.8 104.02 101.86 104.7 101.98C105.394 102.1 106.007 102.307 106.54 102.6C107.087 102.893 107.527 103.3 107.86 103.82C108.194 104.327 108.36 104.967 108.36 105.74C108.36 106.887 108.074 107.833 107.5 108.58C106.94 109.313 106.16 109.813 105.16 110.08L106.22 110.7L109.72 116H106.28L102.8 110.58L101.24 110.34V116H98.2805V102.14ZM102.82 104.4C102.514 104.4 102.214 104.407 101.92 104.42C101.64 104.42 101.414 104.44 101.24 104.48V108.34H102.5C103.34 108.34 104 108.18 104.48 107.86C104.974 107.54 105.22 106.987 105.22 106.2C105.22 105.613 105.014 105.167 104.6 104.86C104.187 104.553 103.594 104.4 102.82 104.4ZM113.327 102H122.347V104.6H116.287V107.64H121.787V110.24H116.287V113.4H122.447V116H113.327V102ZM138.519 110.08L138.919 112.46H139.019L139.459 110.06L142.379 102H145.499L139.839 116.1H137.719L132.019 102H135.459L138.519 110.08ZM149.705 103.6H148.105V102H154.265V103.6H152.665V114.4H154.265V116H148.105V114.4H149.705V103.6ZM162.139 108.7L160.939 106.6H160.839L161.159 108.72V116H158.359V101.9H160.499L166.279 109.36L167.419 111.4H167.539L167.219 109.34V102H170.019V116.1H167.879L162.139 108.7ZM185.396 104.6H180.956V116H177.996V104.6H173.556V102H185.396V104.6ZM194.742 113.02H190.022L188.882 116H185.922L191.402 101.9H193.582L199.082 116H195.942L194.742 113.02ZM190.842 110.68H194.042L192.962 107.76L192.482 105.54H192.382L191.902 107.78L190.842 110.68ZM207.042 108.64H212.762V114.92C212.455 115.16 212.115 115.367 211.742 115.54C211.382 115.7 210.995 115.84 210.582 115.96C210.182 116.067 209.769 116.147 209.342 116.2C208.915 116.253 208.495 116.28 208.082 116.28C207.122 116.28 206.222 116.14 205.382 115.86C204.555 115.58 203.829 115.147 203.202 114.56C202.589 113.96 202.102 113.2 201.742 112.28C201.395 111.36 201.222 110.267 201.222 109C201.222 107.68 201.435 106.56 201.862 105.64C202.289 104.707 202.842 103.953 203.522 103.38C204.215 102.793 204.982 102.373 205.822 102.12C206.675 101.853 207.522 101.72 208.362 101.72C209.229 101.72 209.989 101.787 210.642 101.92C211.309 102.04 211.829 102.16 212.202 102.28L211.582 104.74C211.222 104.62 210.815 104.52 210.362 104.44C209.909 104.36 209.342 104.32 208.662 104.32C208.035 104.32 207.462 104.407 206.942 104.58C206.422 104.74 205.969 105.007 205.582 105.38C205.195 105.753 204.895 106.24 204.682 106.84C204.469 107.44 204.362 108.167 204.362 109.02C204.362 109.847 204.469 110.553 204.682 111.14C204.895 111.727 205.182 112.213 205.542 112.6C205.915 112.973 206.342 113.247 206.822 113.42C207.302 113.593 207.809 113.68 208.342 113.68C208.702 113.68 209.062 113.64 209.422 113.56C209.795 113.48 210.109 113.353 210.362 113.18V110.76L207.042 110.44V108.64ZM216.945 102H225.965V104.6H219.905V107.64H225.405V110.24H219.905V113.4H226.065V116H216.945V102ZM57.3 132H66.32V134.6H60.26V137.64H65.76V140.24H60.26V143.4H66.42V146H57.3V132ZM74.4081 138.7L73.2081 136.6H73.1081L73.4281 138.72V146H70.6281V131.9H72.7681L78.5481 139.36L79.6881 141.4H79.8081L79.4881 139.34V132H82.2881V146.1H80.1481L74.4081 138.7ZM97.6659 134.6H93.2259V146H90.2659V134.6H85.8259V132H97.6659V134.6ZM109.77 140.22H104.17V146H101.21V132H104.17V137.62H109.77V132H112.73V146H109.77V140.22ZM125.591 132H128.391V140.98C128.391 141.887 128.258 142.673 127.991 143.34C127.738 144.007 127.371 144.553 126.891 144.98C126.425 145.407 125.858 145.727 125.191 145.94C124.538 146.14 123.818 146.24 123.031 146.24C121.151 146.24 119.718 145.833 118.731 145.02C117.745 144.193 117.251 142.96 117.251 141.32V132H120.211V140.78C120.211 141.847 120.445 142.593 120.911 143.02C121.378 143.433 122.071 143.64 122.991 143.64C123.871 143.64 124.525 143.42 124.951 142.98C125.378 142.527 125.591 141.793 125.591 140.78V132ZM139.465 142.16C139.465 141.747 139.292 141.42 138.945 141.18C138.599 140.94 138.165 140.72 137.645 140.52C137.139 140.32 136.585 140.12 135.985 139.92C135.385 139.72 134.825 139.453 134.305 139.12C133.799 138.787 133.372 138.367 133.025 137.86C132.679 137.353 132.505 136.693 132.505 135.88C132.505 135.187 132.625 134.58 132.865 134.06C133.119 133.527 133.465 133.093 133.905 132.76C134.359 132.413 134.899 132.153 135.525 131.98C136.165 131.807 136.865 131.72 137.625 131.72C138.505 131.72 139.339 131.8 140.125 131.96C140.925 132.107 141.579 132.32 142.085 132.6L141.145 135.08C140.985 134.987 140.779 134.893 140.525 134.8C140.285 134.693 140.005 134.607 139.685 134.54C139.365 134.46 139.025 134.4 138.665 134.36C138.305 134.307 137.939 134.28 137.565 134.28C136.899 134.28 136.379 134.4 136.005 134.64C135.645 134.867 135.465 135.187 135.465 135.6C135.465 136.013 135.639 136.347 135.985 136.6C136.332 136.84 136.759 137.067 137.265 137.28C137.785 137.48 138.345 137.687 138.945 137.9C139.545 138.1 140.099 138.367 140.605 138.7C141.125 139.02 141.559 139.427 141.905 139.92C142.252 140.413 142.425 141.047 142.425 141.82C142.425 142.593 142.292 143.26 142.025 143.82C141.759 144.38 141.379 144.847 140.885 145.22C140.405 145.58 139.825 145.847 139.145 146.02C138.465 146.193 137.719 146.28 136.905 146.28C136.359 146.28 135.839 146.247 135.345 146.18C134.865 146.127 134.419 146.06 134.005 145.98C133.592 145.887 133.225 145.793 132.905 145.7C132.599 145.593 132.352 145.493 132.165 145.4L133.145 142.9C133.292 142.98 133.492 143.067 133.745 143.16C134.012 143.253 134.305 143.347 134.625 143.44C134.945 143.52 135.285 143.587 135.645 143.64C136.019 143.693 136.392 143.72 136.765 143.72C137.645 143.72 138.312 143.593 138.765 143.34C139.232 143.087 139.465 142.693 139.465 142.16ZM147.509 133.6H145.909V132H152.069V133.6H150.469V144.4H152.069V146H145.909V144.4H147.509V133.6ZM163.683 143.02H158.963L157.823 146H154.863L160.343 131.9H162.523L168.023 146H164.883L163.683 143.02ZM159.783 140.68H162.983L161.903 137.76L161.423 135.54H161.323L160.843 137.78L159.783 140.68ZM177.887 142.16C177.887 141.747 177.714 141.42 177.367 141.18C177.021 140.94 176.587 140.72 176.067 140.52C175.561 140.32 175.007 140.12 174.407 139.92C173.807 139.72 173.247 139.453 172.727 139.12C172.221 138.787 171.794 138.367 171.447 137.86C171.101 137.353 170.927 136.693 170.927 135.88C170.927 135.187 171.047 134.58 171.287 134.06C171.541 133.527 171.887 133.093 172.327 132.76C172.781 132.413 173.321 132.153 173.947 131.98C174.587 131.807 175.287 131.72 176.047 131.72C176.927 131.72 177.761 131.8 178.547 131.96C179.347 132.107 180.001 132.32 180.507 132.6L179.567 135.08C179.407 134.987 179.201 134.893 178.947 134.8C178.707 134.693 178.427 134.607 178.107 134.54C177.787 134.46 177.447 134.4 177.087 134.36C176.727 134.307 176.361 134.28 175.987 134.28C175.321 134.28 174.801 134.4 174.427 134.64C174.067 134.867 173.887 135.187 173.887 135.6C173.887 136.013 174.061 136.347 174.407 136.6C174.754 136.84 175.181 137.067 175.687 137.28C176.207 137.48 176.767 137.687 177.367 137.9C177.967 138.1 178.521 138.367 179.027 138.7C179.547 139.02 179.981 139.427 180.327 139.92C180.674 140.413 180.847 141.047 180.847 141.82C180.847 142.593 180.714 143.26 180.447 143.82C180.181 144.38 179.801 144.847 179.307 145.22C178.827 145.58 178.247 145.847 177.567 146.02C176.887 146.193 176.141 146.28 175.327 146.28C174.781 146.28 174.261 146.247 173.767 146.18C173.287 146.127 172.841 146.06 172.427 145.98C172.014 145.887 171.647 145.793 171.327 145.7C171.021 145.593 170.774 145.493 170.587 145.4L171.567 142.9C171.714 142.98 171.914 143.067 172.167 143.16C172.434 143.253 172.727 143.347 173.047 143.44C173.367 143.52 173.707 143.587 174.067 143.64C174.441 143.693 174.814 143.72 175.187 143.72C176.067 143.72 176.734 143.593 177.187 143.34C177.654 143.087 177.887 142.693 177.887 142.16ZM195.611 134.6H191.171V146H188.211V134.6H183.771V132H195.611V134.6ZM200.255 133.6H198.655V132H204.815V133.6H203.215V144.4H204.815V146H198.655V144.4H200.255V133.6ZM219.189 145.4C218.749 145.707 218.169 145.927 217.449 146.06C216.729 146.207 215.989 146.28 215.229 146.28C214.336 146.28 213.476 146.147 212.649 145.88C211.836 145.613 211.109 145.187 210.469 144.6C209.843 144.013 209.343 143.26 208.969 142.34C208.596 141.42 208.409 140.307 208.409 139C208.409 137.64 208.623 136.5 209.049 135.58C209.476 134.647 210.023 133.9 210.689 133.34C211.356 132.767 212.096 132.353 212.909 132.1C213.723 131.847 214.523 131.72 215.309 131.72C216.176 131.72 216.903 131.773 217.489 131.88C218.089 131.987 218.583 132.113 218.969 132.26L218.389 134.74C218.056 134.593 217.663 134.487 217.209 134.42C216.769 134.353 216.209 134.32 215.529 134.32C214.929 134.32 214.383 134.42 213.889 134.62C213.409 134.807 212.996 135.093 212.649 135.48C212.303 135.867 212.029 136.353 211.829 136.94C211.643 137.527 211.549 138.213 211.549 139C211.549 139.693 211.636 140.327 211.809 140.9C211.983 141.473 212.243 141.967 212.589 142.38C212.936 142.793 213.376 143.113 213.909 143.34C214.443 143.567 215.063 143.68 215.769 143.68C216.423 143.68 216.969 143.62 217.409 143.5C217.863 143.38 218.263 143.227 218.609 143.04L219.189 145.4Z" fill="white"/>
<path d="M239.978 109.076C239.978 108.015 240.322 107.184 241.01 106.582C241.698 105.98 242.601 105.679 243.719 105.679C244.866 105.679 245.783 105.98 246.471 106.582C247.159 107.184 247.503 108.015 247.503 109.076C247.503 110.079 247.159 110.896 246.471 111.527C245.783 112.158 244.866 112.473 243.719 112.473C242.601 112.473 241.698 112.158 241.01 111.527C240.322 110.896 239.978 110.079 239.978 109.076Z" fill="white"/>
</svg>
