<svg width="295" height="219" viewBox="0 0 295 219" fill="none" xmlns="http://www.w3.org/2000/svg">
<path d="M139.918 13.5938C139.873 13.9355 139.725 14.209 139.474 14.4141C139.223 14.6191 138.938 14.7217 138.619 14.7217C138.574 14.7217 138.494 14.7217 138.38 14.7217C138.266 14.6989 138.004 14.6875 137.594 14.6875C137.161 14.6875 136.603 14.7331 135.919 14.8242C135.258 14.9154 134.518 15.109 133.698 15.4053C132.9 15.6787 132.057 16.0889 131.168 16.6357C130.302 17.1826 129.448 17.9232 128.605 18.8574C127.762 19.7689 126.964 20.9082 126.212 22.2754C125.46 23.6198 124.822 25.249 124.298 27.1631C124.025 28.1201 123.706 29.4987 123.341 31.2988C122.999 33.0762 122.623 35.0814 122.213 37.3145C121.826 39.5475 121.427 41.9287 121.017 44.458C120.629 46.9873 120.253 49.471 119.889 51.9092C119.547 54.3473 119.228 56.6715 118.932 58.8818C118.636 61.0693 118.408 62.9492 118.248 64.5215C118.203 64.8177 118.066 65.0798 117.838 65.3076C117.633 65.5583 117.371 65.6836 117.052 65.6836C116.733 65.6836 116.448 65.6038 116.198 65.4443C115.97 65.2848 115.81 65.0456 115.719 64.7266C115.423 63.6328 114.956 62.1175 114.318 60.1807C113.68 58.2438 112.939 56.0677 112.096 53.6523C111.276 51.2142 110.376 48.6279 109.396 45.8936C108.416 43.1592 107.436 40.459 106.456 37.793C105.499 35.1042 104.565 32.5407 103.654 30.1025C102.765 27.6416 101.979 25.4769 101.295 23.6084C101.181 24.8844 100.999 26.3086 100.748 27.8809C100.52 29.4303 100.201 31.1051 99.7913 32.9053C99.4039 34.6826 98.914 36.5739 98.3215 38.5791C97.7291 40.5615 97.0227 42.6237 96.2024 44.7656C94.9264 48.0469 93.4224 50.8496 91.6907 53.1738C89.9817 55.498 88.1816 57.4349 86.2903 58.9844C84.399 60.5339 82.4736 61.7643 80.5139 62.6758C78.5771 63.5645 76.7542 64.2367 75.0452 64.6924C73.3362 65.1481 71.7981 65.4329 70.4309 65.5469C69.0637 65.6836 68.0155 65.752 67.2864 65.752C64.7799 65.752 62.467 65.4215 60.3479 64.7607C58.2515 64.0999 56.4286 63.1657 54.8792 61.958C53.3525 60.7275 52.1562 59.2692 51.2903 57.583C50.4472 55.874 50.0256 53.9941 50.0256 51.9434C50.0256 50.0977 50.4358 48.3773 51.2561 46.7822C52.0992 45.1644 53.2157 43.763 54.6057 42.5781C56.0185 41.3932 57.6249 40.459 59.425 39.7754C61.248 39.0918 63.1392 38.75 65.0989 38.75C66.7167 38.75 68.1637 38.9095 69.4397 39.2285C70.7385 39.5475 71.8778 39.9577 72.8577 40.459C73.8603 40.9375 74.7148 41.4616 75.4211 42.0312C76.1503 42.6009 76.7428 43.1478 77.1985 43.6719C77.677 44.1732 78.0302 44.6061 78.2581 44.9707C78.5087 45.3353 78.6568 45.5518 78.7024 45.6201C78.7935 45.8024 78.8391 46.0075 78.8391 46.2354C78.8391 46.5544 78.7138 46.8506 78.4631 47.124C78.2353 47.3975 77.9277 47.5342 77.5403 47.5342C77.039 47.5342 76.663 47.3063 76.4124 46.8506C76.3896 46.7822 76.1617 46.4632 75.7288 45.8936C75.3186 45.3011 74.6692 44.6631 73.7805 43.9795C72.9146 43.2959 71.7867 42.6807 70.3967 42.1338C69.0068 41.5641 67.3206 41.2793 65.3381 41.2793C63.7203 41.2793 62.1366 41.5527 60.5872 42.0996C59.0605 42.6465 57.7047 43.3984 56.5198 44.3555C55.3349 45.3125 54.3778 46.4518 53.6487 47.7734C52.9423 49.0723 52.5891 50.485 52.5891 52.0117C52.5891 53.6751 52.9765 55.2018 53.7512 56.5918C54.526 57.959 55.5741 59.1325 56.8958 60.1123C58.2402 61.0921 59.7896 61.8555 61.5442 62.4023C63.3215 62.9264 65.2128 63.1885 67.218 63.1885C67.9928 63.1885 69.0181 63.1315 70.2942 63.0176C71.5702 62.9036 72.9944 62.6416 74.5667 62.2314C76.1617 61.8213 77.8365 61.2061 79.5911 60.3857C81.3456 59.5426 83.0774 58.4033 84.7864 56.9678C86.4954 55.5322 88.1246 53.7435 89.6741 51.6016C91.2463 49.4596 92.6249 46.862 93.8098 43.8086C95.0403 40.6641 95.9973 37.679 96.6809 34.8535C97.3873 32.0052 97.9114 29.4417 98.2532 27.1631C98.595 24.8844 98.8 22.9476 98.8684 21.3525C98.9596 19.7347 99.0051 18.584 99.0051 17.9004V17.2168C99.0051 16.8522 99.1191 16.5446 99.3469 16.2939C99.5976 16.0205 99.9166 15.8838 100.304 15.8838C100.874 15.8838 101.272 16.1686 101.5 16.7383C101.569 16.8978 101.762 17.4333 102.081 18.3447C102.423 19.2562 102.856 20.4411 103.38 21.8994C103.927 23.335 104.542 24.9984 105.226 26.8896C105.932 28.7809 106.673 30.7975 107.448 32.9395C108.222 35.0586 109.02 37.2575 109.84 39.5361C110.66 41.8148 111.458 44.0592 112.233 46.2695C113.03 48.4798 113.782 50.6104 114.489 52.6611C115.195 54.7119 115.833 56.5804 116.403 58.2666C116.653 56.4437 116.927 54.5182 117.223 52.4902C117.519 50.4395 117.827 48.3773 118.146 46.3037C118.488 44.2074 118.818 42.1566 119.137 40.1514C119.479 38.1462 119.809 36.2663 120.128 34.5117C120.47 32.7572 120.778 31.1849 121.051 29.7949C121.324 28.4049 121.575 27.2884 121.803 26.4453C122.304 24.4401 123.022 22.5716 123.956 20.8398C124.891 19.0853 126.018 17.5586 127.34 16.2598C128.684 14.9609 130.211 13.9469 131.92 13.2178C133.652 12.4658 135.566 12.0898 137.662 12.0898C138.46 12.0898 139.03 12.181 139.371 12.3633C139.736 12.5456 139.918 12.8988 139.918 13.4229V13.5938ZM133.356 61.2402C133.834 61.901 134.449 62.4365 135.201 62.8467C135.953 63.234 136.876 63.4277 137.97 63.4277C139.087 63.4277 140.101 63.1657 141.012 62.6416C141.923 62.0947 142.755 61.3883 143.507 60.5225C144.259 59.6566 144.931 58.6882 145.524 57.6172C146.116 56.5462 146.652 55.4753 147.13 54.4043C147.244 54.1536 147.404 53.9714 147.609 53.8574C147.814 53.7207 148.042 53.6523 148.292 53.6523C148.68 53.6523 148.987 53.7891 149.215 54.0625C149.466 54.3359 149.591 54.6322 149.591 54.9512C149.591 55.0651 149.58 55.1676 149.557 55.2588C149.534 55.3271 149.5 55.4069 149.454 55.498C147.882 58.9616 146.162 61.5706 144.293 63.3252C142.448 65.0798 140.351 65.9798 138.004 66.0254C136.5 66.0254 135.201 65.7292 134.108 65.1367C133.014 64.5671 132.114 63.8265 131.407 62.915C130.701 61.9808 130.177 60.9326 129.835 59.7705C129.493 58.6084 129.323 57.4463 129.323 56.2842C129.323 55.1221 129.459 54.0511 129.733 53.0713C130.029 52.0915 130.439 51.237 130.963 50.5078C131.51 49.7786 132.148 49.209 132.877 48.7988C133.629 48.3887 134.449 48.1836 135.338 48.1836C135.862 48.1836 136.375 48.2975 136.876 48.5254C137.4 48.7305 137.867 49.0381 138.278 49.4482C138.688 49.8356 139.018 50.3141 139.269 50.8838C139.519 51.4535 139.645 52.1029 139.645 52.832C139.645 53.7663 139.485 54.6436 139.166 55.4639C138.847 56.2842 138.403 57.0475 137.833 57.7539C137.286 58.4603 136.626 59.1097 135.851 59.7021C135.076 60.2946 134.244 60.8073 133.356 61.2402ZM132.33 59.0186C133.037 58.7223 133.675 58.3464 134.244 57.8906C134.837 57.4349 135.338 56.9336 135.748 56.3867C136.158 55.8398 136.477 55.2702 136.705 54.6777C136.933 54.0625 137.047 53.4473 137.047 52.832C137.047 52.1484 136.876 51.6357 136.534 51.2939C136.193 50.9294 135.794 50.7471 135.338 50.7471C134.723 50.7471 134.199 50.918 133.766 51.2598C133.333 51.6016 132.98 52.0459 132.706 52.5928C132.433 53.1396 132.228 53.7549 132.091 54.4385C131.977 55.0993 131.92 55.7601 131.92 56.4209C131.92 56.8311 131.954 57.264 132.023 57.7197C132.114 58.1755 132.216 58.6084 132.33 59.0186ZM171.124 55.498C171.056 56.6829 170.896 57.8792 170.646 59.0869C170.395 60.2718 169.996 61.3428 169.449 62.2998C168.925 63.2568 168.23 64.043 167.365 64.6582C166.499 65.2507 165.428 65.5469 164.152 65.5469C163.354 65.5469 162.648 65.4215 162.032 65.1709C161.44 64.943 160.916 64.6354 160.46 64.248C160.027 63.8379 159.663 63.3822 159.366 62.8809C159.07 62.3568 158.82 61.8099 158.615 61.2402C157.817 62.5618 156.871 63.5872 155.778 64.3164C154.707 65.0228 153.636 65.376 152.565 65.376C151.699 65.376 150.913 65.2165 150.206 64.8975C149.523 64.5785 148.93 64.1341 148.429 63.5645C147.95 62.972 147.574 62.2656 147.301 61.4453C147.028 60.625 146.891 59.7021 146.891 58.6768C146.891 56.9678 147.039 55.498 147.335 54.2676C147.654 53.0143 147.996 51.9889 148.361 51.1914C148.748 50.3939 149.101 49.8014 149.42 49.4141C149.739 49.0039 149.899 48.7988 149.899 48.7988C150.013 48.6621 150.149 48.5596 150.309 48.4912C150.491 48.4229 150.673 48.3887 150.856 48.3887C151.22 48.3887 151.517 48.5254 151.744 48.7988C151.995 49.0495 152.12 49.3457 152.12 49.6875C152.12 49.9382 152.029 50.2116 151.847 50.5078C151.756 50.6445 151.573 50.9066 151.3 51.2939C151.049 51.6813 150.787 52.2054 150.514 52.8662C150.24 53.527 149.99 54.3359 149.762 55.293C149.557 56.25 149.454 57.3779 149.454 58.6768C149.454 60.0212 149.728 61.0465 150.275 61.7529C150.822 62.4365 151.585 62.7783 152.565 62.7783C153.043 62.7783 153.567 62.653 154.137 62.4023C154.707 62.1289 155.242 61.7188 155.743 61.1719C156.245 60.625 156.678 59.93 157.042 59.0869C157.407 58.2438 157.635 57.2526 157.726 56.1133L158.17 50.2344C158.193 49.8926 158.33 49.6077 158.58 49.3799C158.854 49.152 159.161 49.0381 159.503 49.0381C159.891 49.0381 160.198 49.1862 160.426 49.4824C160.654 49.7559 160.768 50.0749 160.768 50.4395L160.392 56.0791C160.323 57.2868 160.358 58.3236 160.494 59.1895C160.654 60.0553 160.905 60.7731 161.246 61.3428C161.588 61.8896 162.01 62.2998 162.511 62.5732C163.012 62.8239 163.571 62.9492 164.186 62.9492C165.006 62.9492 165.701 62.71 166.271 62.2314C166.84 61.7529 167.296 61.1035 167.638 60.2832C167.98 59.4629 168.219 58.5173 168.356 57.4463C168.515 56.3525 168.595 55.2018 168.595 53.9941C168.595 52.5586 168.515 51.3623 168.356 50.4053C168.196 49.4482 168.116 48.8102 168.116 48.4912C168.116 48.1494 168.242 47.8532 168.492 47.6025C168.743 47.3291 169.051 47.1924 169.415 47.1924C169.734 47.1924 170.008 47.2949 170.236 47.5C170.463 47.6823 170.612 47.9329 170.68 48.252C170.703 48.3431 170.771 48.6051 170.885 49.0381C170.999 49.471 171.158 49.9951 171.364 50.6104C171.569 51.2028 171.831 51.8408 172.15 52.5244C172.491 53.1852 172.89 53.8005 173.346 54.3701C173.824 54.9398 174.36 55.4183 174.952 55.8057C175.568 56.1702 176.263 56.3525 177.037 56.3525C177.47 56.3525 177.835 56.2728 178.131 56.1133C178.45 55.931 178.712 55.7259 178.917 55.498C179.122 55.2702 179.27 55.0537 179.362 54.8486C179.476 54.6436 179.544 54.5182 179.567 54.4727C179.681 54.222 179.84 54.0283 180.045 53.8916C180.273 53.7321 180.512 53.6523 180.763 53.6523C181.15 53.6523 181.458 53.8005 181.686 54.0967C181.936 54.3701 182.062 54.6663 182.062 54.9854C182.062 55.2588 181.936 55.6234 181.686 56.0791C181.458 56.5348 181.128 56.9792 180.695 57.4121C180.262 57.8223 179.726 58.1868 179.088 58.5059C178.473 58.8021 177.789 58.9502 177.037 58.9502C176.377 58.9502 175.761 58.859 175.192 58.6768C174.622 58.4717 174.087 58.2096 173.585 57.8906C173.107 57.5716 172.662 57.207 172.252 56.7969C171.842 56.3867 171.466 55.9538 171.124 55.498Z" fill="black"/>
<line x1="1.50085" y1="218.002" x2="1.50085" y2="55.2383" stroke="black" stroke-width="2"/>
<line x1="293.497" y1="218.002" x2="293.497" y2="55.2383" stroke="black" stroke-width="2"/>
<line x1="2" y1="216.507" x2="293.998" y2="216.507" stroke="black" stroke-width="2"/>
<line x1="2.00085" y1="55.2263" x2="42.0003" y2="55.2263" stroke="black" stroke-width="2"/>
<line x1="188.998" y1="54.9796" x2="295" y2="54.9796" stroke="black" stroke-width="2"/>
<path d="M56.0002 166.568C67.1061 162.501 79.6896 165.187 91.2738 163.824" stroke="black" stroke-width="3" stroke-linecap="round"/>
<path d="M62.3002 109.79L62.7002 112.17H62.8002L63.2402 109.77L66.1602 101.71H69.2802L63.6202 115.81H61.5002L55.8002 101.71H59.2402L62.3002 109.79ZM73.4861 103.31H71.8861V101.71H78.0461V103.31H76.4461V114.11H78.0461V115.71H71.8861V114.11H73.4861V103.31ZM85.92 108.41L84.72 106.31H84.62L84.94 108.43V115.71H82.14V101.61H84.28L90.06 109.07L91.2 111.11H91.32L91 109.05V101.71H93.8V115.81H91.66L85.92 108.41ZM109.178 104.31H104.738V115.71H101.778V104.31H97.3378V101.71H109.178V104.31ZM118.523 112.73H113.803L112.663 115.71H109.703L115.183 101.61H117.363L122.863 115.71H119.723L118.523 112.73ZM114.623 110.39H117.823L116.743 107.47L116.263 105.25H116.163L115.683 107.49L114.623 110.39ZM130.823 108.35H136.543V114.63C136.237 114.87 135.897 115.077 135.523 115.25C135.163 115.41 134.777 115.55 134.363 115.67C133.963 115.777 133.55 115.857 133.123 115.91C132.697 115.964 132.277 115.99 131.863 115.99C130.903 115.99 130.003 115.85 129.163 115.57C128.337 115.29 127.61 114.857 126.983 114.27C126.37 113.67 125.883 112.91 125.523 111.99C125.177 111.07 125.003 109.977 125.003 108.71C125.003 107.39 125.217 106.27 125.643 105.35C126.07 104.417 126.623 103.664 127.303 103.09C127.997 102.504 128.763 102.084 129.603 101.83C130.457 101.564 131.303 101.43 132.143 101.43C133.01 101.43 133.77 101.497 134.423 101.63C135.09 101.75 135.61 101.87 135.983 101.99L135.363 104.45C135.003 104.33 134.597 104.23 134.143 104.15C133.69 104.07 133.123 104.03 132.443 104.03C131.817 104.03 131.243 104.117 130.723 104.29C130.203 104.45 129.75 104.717 129.363 105.09C128.977 105.464 128.677 105.95 128.463 106.55C128.25 107.15 128.143 107.877 128.143 108.73C128.143 109.557 128.25 110.264 128.463 110.85C128.677 111.437 128.963 111.924 129.323 112.31C129.697 112.684 130.123 112.957 130.603 113.13C131.083 113.304 131.59 113.39 132.123 113.39C132.483 113.39 132.843 113.35 133.203 113.27C133.577 113.19 133.89 113.064 134.143 112.89V110.47L130.823 110.15V108.35ZM140.726 101.71H149.746V104.31H143.686V107.35H149.186V109.95H143.686V113.11H149.846V115.71H140.726V101.71ZM67.5802 145.11C67.1402 145.417 66.5602 145.637 65.8402 145.77C65.1202 145.917 64.3802 145.99 63.6202 145.99C62.7268 145.99 61.8668 145.857 61.0402 145.59C60.2268 145.324 59.5002 144.897 58.8602 144.31C58.2335 143.724 57.7335 142.97 57.3602 142.05C56.9868 141.13 56.8002 140.017 56.8002 138.71C56.8002 137.35 57.0135 136.21 57.4402 135.29C57.8668 134.357 58.4135 133.61 59.0802 133.05C59.7469 132.477 60.4869 132.064 61.3002 131.81C62.1135 131.557 62.9135 131.43 63.7002 131.43C64.5669 131.43 65.2935 131.484 65.8802 131.59C66.4802 131.697 66.9735 131.824 67.3602 131.97L66.7802 134.45C66.4468 134.304 66.0535 134.197 65.6002 134.13C65.1602 134.064 64.6002 134.03 63.9202 134.03C63.3202 134.03 62.7735 134.13 62.2802 134.33C61.8002 134.517 61.3869 134.804 61.0402 135.19C60.6935 135.577 60.4202 136.064 60.2202 136.65C60.0335 137.237 59.9402 137.924 59.9402 138.71C59.9402 139.404 60.0268 140.037 60.2002 140.61C60.3735 141.184 60.6335 141.677 60.9802 142.09C61.3268 142.504 61.7669 142.824 62.3002 143.05C62.8335 143.277 63.4535 143.39 64.1602 143.39C64.8135 143.39 65.3602 143.33 65.8002 143.21C66.2535 143.09 66.6535 142.937 67.0002 142.75L67.5802 145.11ZM70.226 138.71C70.226 137.564 70.3726 136.537 70.666 135.63C70.9593 134.724 71.3793 133.964 71.926 133.35C72.486 132.724 73.166 132.25 73.966 131.93C74.766 131.597 75.6726 131.43 76.686 131.43C77.766 131.43 78.706 131.61 79.506 131.97C80.3193 132.317 80.9926 132.81 81.526 133.45C82.0726 134.09 82.4793 134.857 82.746 135.75C83.026 136.644 83.166 137.63 83.166 138.71C83.166 139.857 83.0126 140.884 82.706 141.79C82.4126 142.697 81.986 143.464 81.426 144.09C80.866 144.704 80.186 145.177 79.386 145.51C78.586 145.83 77.686 145.99 76.686 145.99C75.606 145.99 74.6593 145.817 73.846 145.47C73.046 145.11 72.3726 144.61 71.826 143.97C71.2926 143.33 70.8926 142.564 70.626 141.67C70.3593 140.777 70.226 139.79 70.226 138.71ZM73.366 138.71C73.366 139.404 73.4326 140.037 73.566 140.61C73.6993 141.184 73.8993 141.677 74.166 142.09C74.4326 142.504 74.7726 142.824 75.186 143.05C75.6126 143.277 76.1126 143.39 76.686 143.39C77.7393 143.39 78.5593 143.03 79.146 142.31C79.7326 141.59 80.026 140.39 80.026 138.71C80.026 138.044 79.966 137.424 79.846 136.85C79.726 136.277 79.526 135.784 79.246 135.37C78.9793 134.944 78.6326 134.617 78.206 134.39C77.7926 134.15 77.286 134.03 76.686 134.03C75.646 134.03 74.8326 134.404 74.246 135.15C73.6593 135.897 73.366 137.084 73.366 138.71ZM96.8972 145.71H87.2572V131.71H90.2172V143.11H96.8972V145.71ZM110.03 145.71H100.39V131.71H103.35V143.11H110.03V145.71ZM113.523 131.71H122.543V134.31H116.483V137.35H121.983V139.95H116.483V143.11H122.643V145.71H113.523V131.71ZM137.131 145.11C136.691 145.417 136.111 145.637 135.391 145.77C134.671 145.917 133.931 145.99 133.171 145.99C132.278 145.99 131.418 145.857 130.591 145.59C129.778 145.324 129.051 144.897 128.411 144.31C127.784 143.724 127.284 142.97 126.911 142.05C126.538 141.13 126.351 140.017 126.351 138.71C126.351 137.35 126.564 136.21 126.991 135.29C127.418 134.357 127.964 133.61 128.631 133.05C129.298 132.477 130.038 132.064 130.851 131.81C131.664 131.557 132.464 131.43 133.251 131.43C134.118 131.43 134.844 131.484 135.431 131.59C136.031 131.697 136.524 131.824 136.911 131.97L136.331 134.45C135.998 134.304 135.604 134.197 135.151 134.13C134.711 134.064 134.151 134.03 133.471 134.03C132.871 134.03 132.324 134.13 131.831 134.33C131.351 134.517 130.938 134.804 130.591 135.19C130.244 135.577 129.971 136.064 129.771 136.65C129.584 137.237 129.491 137.924 129.491 138.71C129.491 139.404 129.578 140.037 129.751 140.61C129.924 141.184 130.184 141.677 130.531 142.09C130.878 142.504 131.318 142.824 131.851 143.05C132.384 143.277 133.004 143.39 133.711 143.39C134.364 143.39 134.911 143.33 135.351 143.21C135.804 143.09 136.204 142.937 136.551 142.75L137.131 145.11ZM150.822 134.31H146.382V145.71H143.422V134.31H138.982V131.71H150.822V134.31ZM155.467 133.31H153.867V131.71H160.027V133.31H158.427V144.11H160.027V145.71H153.867V144.11H155.467V133.31ZM163.62 138.71C163.62 137.564 163.767 136.537 164.06 135.63C164.354 134.724 164.774 133.964 165.32 133.35C165.88 132.724 166.56 132.25 167.36 131.93C168.16 131.597 169.067 131.43 170.08 131.43C171.16 131.43 172.1 131.61 172.9 131.97C173.714 132.317 174.387 132.81 174.92 133.45C175.467 134.09 175.874 134.857 176.14 135.75C176.42 136.644 176.56 137.63 176.56 138.71C176.56 139.857 176.407 140.884 176.1 141.79C175.807 142.697 175.38 143.464 174.82 144.09C174.26 144.704 173.58 145.177 172.78 145.51C171.98 145.83 171.08 145.99 170.08 145.99C169 145.99 168.054 145.817 167.24 145.47C166.44 145.11 165.767 144.61 165.22 143.97C164.687 143.33 164.287 142.564 164.02 141.67C163.754 140.777 163.62 139.79 163.62 138.71ZM166.76 138.71C166.76 139.404 166.827 140.037 166.96 140.61C167.094 141.184 167.294 141.677 167.56 142.09C167.827 142.504 168.167 142.824 168.58 143.05C169.007 143.277 169.507 143.39 170.08 143.39C171.134 143.39 171.954 143.03 172.54 142.31C173.127 141.59 173.42 140.39 173.42 138.71C173.42 138.044 173.36 137.424 173.24 136.85C173.12 136.277 172.92 135.784 172.64 135.37C172.374 134.944 172.027 134.617 171.6 134.39C171.187 134.15 170.68 134.03 170.08 134.03C169.04 134.03 168.227 134.404 167.64 135.15C167.054 135.897 166.76 137.084 166.76 138.71ZM184.432 138.41L183.232 136.31H183.132L183.452 138.43V145.71H180.652V131.61H182.792L188.572 139.07L189.712 141.11H189.832L189.512 139.05V131.71H192.312V145.81H190.172L184.432 138.41Z" fill="black"/>
</svg>
