<svg width="157" height="124" viewBox="0 0 157 124" fill="none" xmlns="http://www.w3.org/2000/svg">
<path d="M59.7803 17.4219C60.0993 17.4219 60.3955 17.5472 60.6689 17.7979C60.9652 18.0257 61.1133 18.3333 61.1133 18.7207C61.1133 19.1992 60.8968 19.5638 60.4639 19.8145C60.4411 19.8372 60.1221 20.0537 59.5068 20.4639C58.9144 20.874 58.208 21.512 57.3877 22.3779C59.0967 22.583 60.8398 22.6855 62.6172 22.6855C64.349 22.6855 65.9212 22.5716 67.334 22.3438C68.7695 22.0931 70.0456 21.7627 71.1621 21.3525C72.3014 20.9196 73.2812 20.4183 74.1016 19.8486C74.9447 19.279 75.6396 18.6523 76.1865 17.9688C76.3232 17.8092 76.4827 17.6839 76.665 17.5928C76.8473 17.4788 77.041 17.4219 77.2461 17.4219C77.6107 17.4219 77.9069 17.5586 78.1348 17.832C78.3854 18.1055 78.5107 18.4017 78.5107 18.7207C78.5107 19.0397 78.431 19.2904 78.2715 19.4727C77.7246 20.2018 76.9954 20.9196 76.084 21.626C75.1725 22.3096 74.0674 22.9248 72.7686 23.4717C71.4697 24.0186 69.9772 24.4629 68.291 24.8047C66.6048 25.1237 64.7249 25.2832 62.6514 25.2832C61.4665 25.2832 60.2816 25.2376 59.0967 25.1465C57.9118 25.0326 56.7269 24.8844 55.542 24.7021C55.0179 25.4541 54.528 26.2972 54.0723 27.2314C53.6393 28.1657 53.2861 29.1911 53.0127 30.3076C52.5342 32.2217 52.2607 34.2497 52.1924 36.3916C52.1468 38.5335 52.1012 40.721 52.0557 42.9541C52.0329 45.1644 51.9303 47.3747 51.748 49.585C51.5658 51.7725 51.1328 53.8916 50.4492 55.9424C49.9251 57.4919 49.2188 58.9274 48.3301 60.249C47.4642 61.5706 46.3932 62.7214 45.1172 63.7012C43.8639 64.6582 42.417 65.4102 40.7764 65.957C39.1585 66.5267 37.3356 66.8115 35.3076 66.8115C31.9808 66.8115 28.973 66.1507 26.2842 64.8291C23.5954 63.5075 21.2598 61.4225 19.2773 58.5742C19.209 58.4603 19.1178 58.3008 19.0039 58.0957C18.89 57.8906 18.833 57.6855 18.833 57.4805C18.833 57.1615 18.9469 56.8538 19.1748 56.5576C19.4027 56.2614 19.7217 56.1133 20.1318 56.1133C20.3825 56.1133 20.6104 56.1816 20.8154 56.3184C21.0205 56.4323 21.18 56.5804 21.2939 56.7627C22.9574 59.3148 24.9056 61.2061 27.1387 62.4365C29.3717 63.6442 32.0833 64.248 35.2734 64.248C36.9596 64.248 38.4749 64.043 39.8193 63.6328C41.1637 63.1999 42.3486 62.596 43.374 61.8213C44.4222 61.0238 45.3223 60.0553 46.0742 58.916C46.8262 57.7767 47.4528 56.4779 47.9541 55.0195C48.501 53.4245 48.8428 51.5902 48.9795 49.5166C49.139 47.4202 49.2415 45.2441 49.2871 42.9883C49.3327 40.7096 49.4124 38.431 49.5264 36.1523C49.6631 33.8737 49.9821 31.7204 50.4834 29.6924C50.734 28.6214 51.0645 27.6302 51.4746 26.7188C51.8848 25.8073 52.3177 24.9642 52.7734 24.1895C49.7201 23.5742 46.6781 22.7995 43.6475 21.8652C40.6396 20.9082 37.6888 19.9967 34.7949 19.1309C31.9238 18.2422 29.1439 17.4788 26.4551 16.8408C23.7891 16.2028 21.2712 15.8838 18.9014 15.8838C16.7367 15.8838 14.7314 16.1914 12.8857 16.8066C11.0628 17.4219 9.47917 18.2878 8.13477 19.4043C6.81315 20.5208 5.77637 21.8652 5.02441 23.4375C4.29525 25.0098 3.93066 26.7529 3.93066 28.667C3.93066 30.057 4.16992 31.333 4.64844 32.4951C5.14974 33.6572 5.83333 34.6712 6.69922 35.5371C7.5651 36.3802 8.59049 37.041 9.77539 37.5195C10.9603 37.998 12.2591 38.2373 13.6719 38.2373C15.153 38.2373 16.4746 38.0208 17.6367 37.5879C18.7988 37.1322 19.8242 36.5739 20.7129 35.9131C21.6016 35.2523 22.3535 34.5345 22.9688 33.7598C23.6068 32.985 24.1195 32.2673 24.5068 31.6064C24.917 30.9229 25.2132 30.3646 25.3955 29.9316C25.6006 29.4759 25.7031 29.248 25.7031 29.248C25.7943 28.9974 25.9538 28.7923 26.1816 28.6328C26.4095 28.4733 26.6602 28.3936 26.9336 28.3936C27.321 28.3936 27.6286 28.5303 27.8564 28.8037C28.1071 29.0544 28.2324 29.3506 28.2324 29.6924C28.2324 29.7607 28.221 29.8291 28.1982 29.8975C28.1982 29.943 28.1868 30 28.1641 30.0684C28.1413 30.1139 28.016 30.4215 27.7881 30.9912C27.5602 31.5381 27.207 32.2103 26.7285 33.0078C26.25 33.7826 25.6348 34.6257 24.8828 35.5371C24.1309 36.4486 23.2194 37.3031 22.1484 38.1006C21.0775 38.8753 19.8356 39.5247 18.4229 40.0488C17.0329 40.5501 15.4378 40.8008 13.6377 40.8008C11.9059 40.8008 10.2881 40.4932 8.78418 39.8779C7.30306 39.2627 6.00423 38.4196 4.8877 37.3486C3.79395 36.2777 2.92806 35.0016 2.29004 33.5205C1.6748 32.0394 1.36719 30.4215 1.36719 28.667C1.36719 26.3428 1.81152 24.2464 2.7002 22.3779C3.58887 20.4867 4.81934 18.8688 6.3916 17.5244C7.96387 16.18 9.82096 15.1432 11.9629 14.4141C14.1048 13.6849 16.429 13.3203 18.9355 13.3203C20.7585 13.3203 22.5928 13.4798 24.4385 13.7988C26.2842 14.1178 28.1527 14.5394 30.0439 15.0635C31.958 15.5876 33.8949 16.1686 35.8545 16.8066C37.8141 17.4447 39.7965 18.0941 41.8018 18.7549C43.8298 19.3929 45.8805 19.9967 47.9541 20.5664C50.0505 21.1361 52.181 21.6032 54.3457 21.9678C54.9154 21.2614 55.4736 20.6348 56.0205 20.0879C56.5902 19.541 57.0915 19.0967 57.5244 18.7549C57.9801 18.3903 58.3561 18.1169 58.6523 17.9346C58.9486 17.7295 59.1195 17.6156 59.165 17.5928C59.3929 17.4788 59.598 17.4219 59.7803 17.4219ZM86.7822 55.4639C86.6911 55.6462 86.4974 56.0335 86.2012 56.626C85.9277 57.1956 85.5632 57.8564 85.1074 58.6084C84.6745 59.3604 84.1618 60.1465 83.5693 60.9668C82.9769 61.7871 82.3161 62.5391 81.5869 63.2227C80.8577 63.9062 80.0716 64.4759 79.2285 64.9316C78.3854 65.3646 77.4967 65.5811 76.5625 65.5811C75.2409 65.5811 74.1243 65.1595 73.2129 64.3164C72.3242 63.4733 71.6748 62.4137 71.2646 61.1377C70.4899 62.4365 69.5671 63.4733 68.4961 64.248C67.4251 65 66.3542 65.376 65.2832 65.376C64.4401 65.376 63.6768 65.2279 62.9932 64.9316C62.3096 64.6126 61.7285 64.1797 61.25 63.6328C60.7715 63.0632 60.3955 62.4023 60.1221 61.6504C59.8714 60.8984 59.7461 60.0781 59.7461 59.1895C59.7461 57.4121 60.0423 55.8512 60.6348 54.5068C61.25 53.1396 62.0247 52.0003 62.959 51.0889C63.8932 50.1774 64.9186 49.4938 66.0352 49.0381C67.1745 48.5824 68.2682 48.3545 69.3164 48.3545C70.0228 48.3545 70.6722 48.457 71.2646 48.6621C71.8571 48.8444 72.3584 49.0495 72.7686 49.2773C73.2015 49.5052 73.5319 49.7217 73.7598 49.9268C73.9876 50.109 74.113 50.2116 74.1357 50.2344C74.3864 50.5306 74.5117 50.8382 74.5117 51.1572C74.5117 51.499 74.3864 51.8066 74.1357 52.0801C73.8851 52.3307 73.5889 52.4561 73.2471 52.4561C72.8825 52.4561 72.5749 52.3307 72.3242 52.0801C72.2786 52.0345 72.1761 51.9548 72.0166 51.8408C71.8571 51.7041 71.6406 51.5674 71.3672 51.4307C71.0938 51.2939 70.7633 51.18 70.376 51.0889C70.0114 50.9749 69.5898 50.918 69.1113 50.918C68.4049 50.918 67.653 51.0775 66.8555 51.3965C66.0579 51.7155 65.3288 52.2168 64.668 52.9004C64.0072 53.5612 63.4489 54.4043 62.9932 55.4297C62.5602 56.4323 62.3438 57.6286 62.3438 59.0186C62.3438 59.4515 62.3893 59.8958 62.4805 60.3516C62.5716 60.7845 62.7311 61.1833 62.959 61.5479C63.1868 61.9124 63.4945 62.2087 63.8818 62.4365C64.2692 62.6644 64.7477 62.7783 65.3174 62.7783C65.7275 62.7783 66.1947 62.6416 66.7188 62.3682C67.2656 62.0947 67.7783 61.6732 68.2568 61.1035C68.7581 60.5339 69.2025 59.8161 69.5898 58.9502C70 58.0843 70.2848 57.0589 70.4443 55.874C70.4899 55.555 70.638 55.293 70.8887 55.0879C71.1393 54.86 71.4355 54.7461 71.7773 54.7461C72.0964 54.7461 72.3698 54.8714 72.5977 55.1221C72.8483 55.3727 72.985 55.6576 73.0078 55.9766C73.0306 56.4095 73.0762 57.0247 73.1445 57.8223C73.2129 58.597 73.361 59.3717 73.5889 60.1465C73.8395 60.9212 74.2041 61.5934 74.6826 62.1631C75.1611 62.7327 75.8219 63.0176 76.665 63.0176C77.2119 63.0176 77.7474 62.8695 78.2715 62.5732C78.8184 62.277 79.3424 61.8896 79.8438 61.4111C80.3678 60.9098 80.8577 60.3516 81.3135 59.7363C81.792 59.0983 82.2249 58.4603 82.6123 57.8223C82.9997 57.1842 83.3415 56.569 83.6377 55.9766C83.9339 55.3841 84.1846 54.8714 84.3896 54.4385C84.5036 54.1878 84.6631 53.9941 84.8682 53.8574C85.096 53.7207 85.3353 53.6523 85.5859 53.6523C85.9733 53.6523 86.2809 53.8005 86.5088 54.0967C86.7594 54.3701 86.8848 54.6663 86.8848 54.9854C86.8848 55.1449 86.8506 55.3044 86.7822 55.4639ZM113.237 55.5322C113.169 55.6689 113.021 55.9538 112.793 56.3867C112.565 56.7969 112.269 57.2868 111.904 57.8564C111.54 58.4033 111.107 58.9958 110.605 59.6338C110.104 60.249 109.557 60.8187 108.965 61.3428C108.372 61.8669 107.734 62.2998 107.051 62.6416C106.367 62.9834 105.661 63.1543 104.932 63.1543C103.747 63.1543 102.744 62.9492 101.924 62.5391C101.104 62.1061 100.431 61.6276 99.9072 61.1035C99.5426 61.901 99.0983 62.6302 98.5742 63.291C98.0501 63.9518 97.4691 64.5215 96.8311 65C96.193 65.5013 95.5094 65.8887 94.7803 66.1621C94.0739 66.4355 93.3447 66.5723 92.5928 66.5723C91.2028 66.5723 90.0179 66.1621 89.0381 65.3418C88.0583 64.5215 87.238 63.4277 86.5771 62.0605C85.9391 60.6706 85.4378 59.0641 85.0732 57.2412C84.7087 55.4183 84.4238 53.5042 84.2188 51.499C84.0365 49.4938 83.9225 47.4658 83.877 45.415C83.8314 43.3643 83.8086 41.416 83.8086 39.5703C83.8086 36.0384 83.9111 32.985 84.1162 30.4102C84.3213 27.8125 84.5947 25.6136 84.9365 23.8135C85.3011 21.9906 85.7113 20.5208 86.167 19.4043C86.6455 18.265 87.1468 17.3877 87.6709 16.7725C88.195 16.1344 88.7305 15.7015 89.2773 15.4736C89.8242 15.2458 90.3597 15.1318 90.8838 15.1318C91.7269 15.1318 92.4674 15.3825 93.1055 15.8838C93.7663 16.3851 94.3132 17.0915 94.7461 18.0029C95.2018 18.8916 95.5436 19.974 95.7715 21.25C95.9993 22.526 96.1133 23.9274 96.1133 25.4541C96.1133 27.8923 95.8512 30.4102 95.3271 33.0078C94.8031 35.6055 94.1195 38.2031 93.2764 40.8008C92.4561 43.3757 91.5332 45.9163 90.5078 48.4229C89.4824 50.9066 88.4684 53.265 87.4658 55.498C87.6025 56.6146 87.8076 57.6855 88.0811 58.7109C88.3545 59.7135 88.7077 60.6136 89.1406 61.4111C89.5736 62.1859 90.0863 62.8125 90.6787 63.291C91.2712 63.7467 91.9548 63.9746 92.7295 63.9746C93.5042 63.9746 94.2334 63.7581 94.917 63.3252C95.6006 62.8695 96.193 62.2884 96.6943 61.582C97.1956 60.8529 97.583 60.0326 97.8564 59.1211C98.1527 58.2096 98.3008 57.2754 98.3008 56.3184C98.3008 55.6803 98.2324 55.0423 98.0957 54.4043C97.9818 53.7435 97.7881 53.1624 97.5146 52.6611C97.264 52.137 96.945 51.7155 96.5576 51.3965C96.1702 51.0775 95.7031 50.918 95.1562 50.918C94.7461 50.918 94.4271 51.0091 94.1992 51.1914C93.9714 51.3509 93.8005 51.5446 93.6865 51.7725C93.5726 51.9775 93.5042 52.1826 93.4814 52.3877C93.4587 52.5928 93.4473 52.7295 93.4473 52.7979C93.4473 53.1169 93.5156 53.4359 93.6523 53.7549C93.7891 54.0739 94.0511 54.3587 94.4385 54.6094C94.8258 54.8828 95.0195 55.2588 95.0195 55.7373C95.0195 56.1247 94.8828 56.4323 94.6094 56.6602C94.3587 56.888 94.0739 57.002 93.7549 57.002C93.2992 57.002 92.889 56.8652 92.5244 56.5918C92.1826 56.3184 91.8864 55.9766 91.6357 55.5664C91.3851 55.1335 91.1914 54.6777 91.0547 54.1992C90.918 53.7207 90.8496 53.2764 90.8496 52.8662C90.8496 52.2054 90.9635 51.6016 91.1914 51.0547C91.4193 50.485 91.7269 50.0065 92.1143 49.6191C92.5244 49.209 92.9801 48.9014 93.4814 48.6963C94.0055 48.4684 94.5524 48.3545 95.1221 48.3545C96.1019 48.3545 96.945 48.5824 97.6514 49.0381C98.3805 49.4938 98.9844 50.0977 99.4629 50.8496C99.9414 51.6016 100.295 52.4561 100.522 53.4131C100.75 54.3701 100.864 55.3385 100.864 56.3184C100.864 56.888 100.83 57.4463 100.762 57.9932C100.853 58.1755 101.001 58.4147 101.206 58.7109C101.411 59.0072 101.685 59.292 102.026 59.5654C102.368 59.8389 102.778 60.0781 103.257 60.2832C103.735 60.4883 104.294 60.5908 104.932 60.5908C105.479 60.5908 106.037 60.3857 106.606 59.9756C107.199 59.5426 107.757 59.0186 108.281 58.4033C108.828 57.7653 109.329 57.0931 109.785 56.3867C110.241 55.6576 110.617 54.9854 110.913 54.3701C111.027 54.1423 111.187 53.9714 111.392 53.8574C111.597 53.7207 111.825 53.6523 112.075 53.6523C112.463 53.6523 112.77 53.7891 112.998 54.0625C113.249 54.3359 113.374 54.6436 113.374 54.9854C113.374 55.1221 113.328 55.3044 113.237 55.5322ZM86.8164 51.123C87.5911 49.209 88.3773 47.2038 89.1748 45.1074C89.9723 42.9883 90.6901 40.835 91.3281 38.6475C91.9661 36.46 92.4902 34.2497 92.9004 32.0166C93.3105 29.7835 93.5156 27.5846 93.5156 25.4199C93.5156 24.5996 93.4701 23.7451 93.3789 22.8564C93.3105 21.945 93.1738 21.1133 92.9688 20.3613C92.7637 19.6094 92.4788 18.9827 92.1143 18.4814C91.7725 17.9801 91.3281 17.7295 90.7812 17.7295C90.599 17.7295 90.3597 17.8548 90.0635 18.1055C89.79 18.3333 89.4938 18.7549 89.1748 19.3701C88.8558 19.9626 88.5368 20.7943 88.2178 21.8652C87.8988 22.9362 87.6025 24.3034 87.3291 25.9668C87.0785 27.6074 86.862 29.5898 86.6797 31.9141C86.5202 34.2383 86.4404 36.9727 86.4404 40.1172C86.4404 41.1654 86.4518 42.2363 86.4746 43.3301C86.4974 44.401 86.5202 45.4264 86.543 46.4062C86.5885 47.3861 86.6341 48.2861 86.6797 49.1064C86.7253 49.9268 86.7708 50.599 86.8164 51.123ZM130.396 55.5322C130.145 56.0563 129.826 56.6829 129.438 57.4121C129.074 58.1185 128.652 58.859 128.174 59.6338C127.695 60.4085 127.16 61.1833 126.567 61.958C125.975 62.71 125.326 63.3936 124.619 64.0088C123.936 64.6012 123.195 65.0798 122.397 65.4443C121.623 65.8317 120.791 66.0254 119.902 66.0254C118.535 66.0254 117.362 65.6038 116.382 64.7607C115.402 63.9176 114.57 62.8125 113.887 61.4453C113.203 60.0781 112.645 58.5286 112.212 56.7969C111.802 55.0423 111.483 53.265 111.255 51.4648C111.027 49.6419 110.868 47.876 110.776 46.167C110.708 44.458 110.674 42.9427 110.674 41.6211C110.674 39.707 110.731 37.7246 110.845 35.6738C110.981 33.623 111.187 31.6178 111.46 29.6582C111.733 27.6986 112.075 25.8415 112.485 24.0869C112.918 22.3324 113.42 20.7943 113.989 19.4727C114.582 18.151 115.254 17.1029 116.006 16.3281C116.758 15.5534 117.612 15.166 118.569 15.166C119.321 15.166 119.993 15.3483 120.586 15.7129C121.201 16.0547 121.714 16.6243 122.124 17.4219C122.534 18.2194 122.853 19.2562 123.081 20.5322C123.309 21.8083 123.423 23.3691 123.423 25.2148C123.423 27.4935 123.184 29.8519 122.705 32.29C122.227 34.7054 121.577 37.1436 120.757 39.6045C119.937 42.0654 118.968 44.5264 117.852 46.9873C116.735 49.4255 115.539 51.8066 114.263 54.1309C114.832 57.0247 115.596 59.3034 116.553 60.9668C117.51 62.6074 118.66 63.4277 120.005 63.4277C120.916 63.4277 121.794 63.0745 122.637 62.3682C123.48 61.639 124.255 60.7845 124.961 59.8047C125.667 58.8249 126.283 57.8337 126.807 56.8311C127.354 55.8057 127.775 54.9854 128.071 54.3701C128.185 54.1423 128.345 53.9714 128.55 53.8574C128.755 53.7207 128.983 53.6523 129.233 53.6523C129.621 53.6523 129.928 53.7891 130.156 54.0625C130.407 54.3359 130.532 54.6436 130.532 54.9854C130.532 55.1221 130.487 55.3044 130.396 55.5322ZM113.271 41.792C113.271 43.2503 113.306 44.6517 113.374 45.9961C113.442 47.3405 113.534 48.6279 113.647 49.8584C114.604 48.0127 115.516 46.0531 116.382 43.9795C117.248 41.8831 118.011 39.7754 118.672 37.6562C119.333 35.5143 119.857 33.3952 120.244 31.2988C120.654 29.1797 120.859 27.1631 120.859 25.249C120.859 22.5602 120.643 20.6348 120.21 19.4727C119.777 18.3105 119.196 17.7295 118.467 17.7295C117.988 17.7295 117.521 18.0599 117.065 18.7207C116.632 19.3815 116.222 20.2816 115.835 21.4209C115.448 22.5602 115.094 23.9046 114.775 25.4541C114.456 27.0036 114.183 28.667 113.955 30.4443C113.75 32.2217 113.579 34.0788 113.442 36.0156C113.328 37.9525 113.271 39.8779 113.271 41.792ZM132.207 61.2402C132.686 61.901 133.301 62.4365 134.053 62.8467C134.805 63.234 135.728 63.4277 136.821 63.4277C137.938 63.4277 138.952 63.1657 139.863 62.6416C140.775 62.0947 141.606 61.3883 142.358 60.5225C143.11 59.6566 143.783 58.6882 144.375 57.6172C144.967 56.5462 145.503 55.4753 145.981 54.4043C146.095 54.1536 146.255 53.9714 146.46 53.8574C146.665 53.7207 146.893 53.6523 147.144 53.6523C147.531 53.6523 147.839 53.7891 148.066 54.0625C148.317 54.3359 148.442 54.6322 148.442 54.9512C148.442 55.0651 148.431 55.1676 148.408 55.2588C148.385 55.3271 148.351 55.4069 148.306 55.498C146.733 58.9616 145.013 61.5706 143.145 63.3252C141.299 65.0798 139.202 65.9798 136.855 66.0254C135.352 66.0254 134.053 65.7292 132.959 65.1367C131.865 64.5671 130.965 63.8265 130.259 62.915C129.552 61.9808 129.028 60.9326 128.687 59.7705C128.345 58.6084 128.174 57.4463 128.174 56.2842C128.174 55.1221 128.311 54.0511 128.584 53.0713C128.88 52.0915 129.29 51.237 129.814 50.5078C130.361 49.7786 130.999 49.209 131.729 48.7988C132.48 48.3887 133.301 48.1836 134.189 48.1836C134.714 48.1836 135.226 48.2975 135.728 48.5254C136.252 48.7305 136.719 49.0381 137.129 49.4482C137.539 49.8356 137.869 50.3141 138.12 50.8838C138.371 51.4535 138.496 52.1029 138.496 52.832C138.496 53.7663 138.337 54.6436 138.018 55.4639C137.699 56.2842 137.254 57.0475 136.685 57.7539C136.138 58.4603 135.477 59.1097 134.702 59.7021C133.927 60.2946 133.096 60.8073 132.207 61.2402ZM131.182 59.0186C131.888 58.7223 132.526 58.3464 133.096 57.8906C133.688 57.4349 134.189 56.9336 134.6 56.3867C135.01 55.8398 135.329 55.2702 135.557 54.6777C135.785 54.0625 135.898 53.4473 135.898 52.832C135.898 52.1484 135.728 51.6357 135.386 51.2939C135.044 50.9294 134.645 50.7471 134.189 50.7471C133.574 50.7471 133.05 50.918 132.617 51.2598C132.184 51.6016 131.831 52.0459 131.558 52.5928C131.284 53.1396 131.079 53.7549 130.942 54.4385C130.828 55.0993 130.771 55.7601 130.771 56.4209C130.771 56.8311 130.806 57.264 130.874 57.7197C130.965 58.1755 131.068 58.6084 131.182 59.0186Z" fill="#1E1E1E"/>
<path d="M35.3 80H44.32V82.6H38.26V85.86H43.84V88.46H38.26V94H35.3V80ZM55.8356 91.02H51.1156L49.9756 94H47.0156L52.4956 79.9H54.6756L60.1756 94H57.0356L55.8356 91.02ZM51.9356 88.68H55.1356L54.0556 85.76L53.5756 83.54H53.4756L52.9956 85.78L51.9356 88.68ZM70.0397 90.16C70.0397 89.7467 69.8664 89.42 69.5197 89.18C69.173 88.94 68.7397 88.72 68.2197 88.52C67.713 88.32 67.1597 88.12 66.5597 87.92C65.9597 87.72 65.3997 87.4533 64.8797 87.12C64.373 86.7867 63.9464 86.3667 63.5997 85.86C63.253 85.3533 63.0797 84.6933 63.0797 83.88C63.0797 83.1867 63.1997 82.58 63.4397 82.06C63.693 81.5267 64.0397 81.0933 64.4797 80.76C64.933 80.4133 65.473 80.1533 66.0997 79.98C66.7397 79.8067 67.4397 79.72 68.1997 79.72C69.0797 79.72 69.913 79.8 70.6997 79.96C71.4997 80.1067 72.153 80.32 72.6597 80.6L71.7197 83.08C71.5597 82.9867 71.353 82.8933 71.0997 82.8C70.8597 82.6933 70.5797 82.6067 70.2597 82.54C69.9397 82.46 69.5997 82.4 69.2397 82.36C68.8797 82.3067 68.513 82.28 68.1397 82.28C67.473 82.28 66.953 82.4 66.5797 82.64C66.2197 82.8667 66.0397 83.1867 66.0397 83.6C66.0397 84.0133 66.213 84.3467 66.5597 84.6C66.9064 84.84 67.333 85.0667 67.8397 85.28C68.3597 85.48 68.9197 85.6867 69.5197 85.9C70.1197 86.1 70.673 86.3667 71.1797 86.7C71.6997 87.02 72.133 87.4267 72.4797 87.92C72.8264 88.4133 72.9997 89.0467 72.9997 89.82C72.9997 90.5933 72.8664 91.26 72.5997 91.82C72.333 92.38 71.953 92.8467 71.4597 93.22C70.9797 93.58 70.3997 93.8467 69.7197 94.02C69.0397 94.1933 68.293 94.28 67.4797 94.28C66.933 94.28 66.413 94.2467 65.9197 94.18C65.4397 94.1267 64.993 94.06 64.5797 93.98C64.1664 93.8867 63.7997 93.7933 63.4797 93.7C63.173 93.5933 62.9264 93.4933 62.7397 93.4L63.7197 90.9C63.8664 90.98 64.0664 91.0667 64.3197 91.16C64.5864 91.2533 64.8797 91.3467 65.1997 91.44C65.5197 91.52 65.8597 91.5867 66.2197 91.64C66.593 91.6933 66.9664 91.72 67.3397 91.72C68.2197 91.72 68.8864 91.5933 69.3397 91.34C69.8064 91.0867 70.0397 90.6933 70.0397 90.16ZM85.5436 88.22H79.9436V94H76.9836V80H79.9436V85.62H85.5436V80H88.5036V94H85.5436V88.22ZM94.2047 81.6H92.6047V80H98.7647V81.6H97.1647V92.4H98.7647V94H92.6047V92.4H94.2047V81.6ZM102.359 87C102.359 85.8533 102.505 84.8267 102.799 83.92C103.092 83.0133 103.512 82.2533 104.059 81.64C104.619 81.0133 105.299 80.54 106.099 80.22C106.899 79.8867 107.805 79.72 108.819 79.72C109.899 79.72 110.839 79.9 111.639 80.26C112.452 80.6067 113.125 81.1 113.659 81.74C114.205 82.38 114.612 83.1467 114.879 84.04C115.159 84.9333 115.299 85.92 115.299 87C115.299 88.1467 115.145 89.1733 114.839 90.08C114.545 90.9867 114.119 91.7533 113.559 92.38C112.999 92.9933 112.319 93.4667 111.519 93.8C110.719 94.12 109.819 94.28 108.819 94.28C107.739 94.28 106.792 94.1067 105.979 93.76C105.179 93.4 104.505 92.9 103.959 92.26C103.425 91.62 103.025 90.8533 102.759 89.96C102.492 89.0667 102.359 88.08 102.359 87ZM105.499 87C105.499 87.6933 105.565 88.3267 105.699 88.9C105.832 89.4733 106.032 89.9667 106.299 90.38C106.565 90.7933 106.905 91.1133 107.319 91.34C107.745 91.5667 108.245 91.68 108.819 91.68C109.872 91.68 110.692 91.32 111.279 90.6C111.865 89.88 112.159 88.68 112.159 87C112.159 86.3333 112.099 85.7133 111.979 85.14C111.859 84.5667 111.659 84.0733 111.379 83.66C111.112 83.2333 110.765 82.9067 110.339 82.68C109.925 82.44 109.419 82.32 108.819 82.32C107.779 82.32 106.965 82.6933 106.379 83.44C105.792 84.1867 105.499 85.3733 105.499 87ZM123.17 86.7L121.97 84.6H121.87L122.19 86.72V94H119.39V79.9H121.53L127.31 87.36L128.45 89.4H128.57L128.25 87.34V80H131.05V94.1H128.91L123.17 86.7Z" fill="black"/>
<path d="M53 114.787C65.7884 111.724 82.7198 109.981 96.4379 110.485C99.352 110.592 101.6 110.47 104.533 111.007" stroke="black" stroke-width="3" stroke-linecap="round"/>
</svg>
