<svg width="181" height="168" viewBox="0 0 181 168" fill="none" xmlns="http://www.w3.org/2000/svg">
<ellipse cx="90.5" cy="84" rx="90.5" ry="84" fill="white"/>
<path d="M71.7803 45.4219C72.0993 45.4219 72.3955 45.5472 72.6689 45.7979C72.9652 46.0257 73.1133 46.3333 73.1133 46.7207C73.1133 47.1992 72.8968 47.5638 72.4639 47.8145C72.4411 47.8372 72.1221 48.0537 71.5068 48.4639C70.9144 48.874 70.208 49.512 69.3877 50.3779C71.0967 50.583 72.8398 50.6855 74.6172 50.6855C76.349 50.6855 77.9212 50.5716 79.334 50.3438C80.7695 50.0931 82.0456 49.7627 83.1621 49.3525C84.3014 48.9196 85.2812 48.4183 86.1016 47.8486C86.9447 47.279 87.6396 46.6523 88.1865 45.9688C88.3232 45.8092 88.4827 45.6839 88.665 45.5928C88.8473 45.4788 89.041 45.4219 89.2461 45.4219C89.6107 45.4219 89.9069 45.5586 90.1348 45.832C90.3854 46.1055 90.5107 46.4017 90.5107 46.7207C90.5107 47.0397 90.431 47.2904 90.2715 47.4727C89.7246 48.2018 88.9954 48.9196 88.084 49.626C87.1725 50.3096 86.0674 50.9248 84.7686 51.4717C83.4697 52.0186 81.9772 52.4629 80.291 52.8047C78.6048 53.1237 76.7249 53.2832 74.6514 53.2832C73.4665 53.2832 72.2816 53.2376 71.0967 53.1465C69.9118 53.0326 68.7269 52.8844 67.542 52.7021C67.0179 53.4541 66.528 54.2972 66.0723 55.2314C65.6393 56.1657 65.2861 57.1911 65.0127 58.3076C64.5342 60.2217 64.2607 62.2497 64.1924 64.3916C64.1468 66.5335 64.1012 68.721 64.0557 70.9541C64.0329 73.1644 63.9303 75.3747 63.748 77.585C63.5658 79.7725 63.1328 81.8916 62.4492 83.9424C61.9251 85.4919 61.2188 86.9274 60.3301 88.249C59.4642 89.5706 58.3932 90.7214 57.1172 91.7012C55.8639 92.6582 54.417 93.4102 52.7764 93.957C51.1585 94.5267 49.3356 94.8115 47.3076 94.8115C43.9808 94.8115 40.973 94.1507 38.2842 92.8291C35.5954 91.5075 33.2598 89.4225 31.2773 86.5742C31.209 86.4603 31.1178 86.3008 31.0039 86.0957C30.89 85.8906 30.833 85.6855 30.833 85.4805C30.833 85.1615 30.9469 84.8538 31.1748 84.5576C31.4027 84.2614 31.7217 84.1133 32.1318 84.1133C32.3825 84.1133 32.6104 84.1816 32.8154 84.3184C33.0205 84.4323 33.18 84.5804 33.2939 84.7627C34.9574 87.3148 36.9056 89.2061 39.1387 90.4365C41.3717 91.6442 44.0833 92.248 47.2734 92.248C48.9596 92.248 50.4749 92.043 51.8193 91.6328C53.1637 91.1999 54.3486 90.596 55.374 89.8213C56.4222 89.0238 57.3223 88.0553 58.0742 86.916C58.8262 85.7767 59.4528 84.4779 59.9541 83.0195C60.501 81.4245 60.8428 79.5902 60.9795 77.5166C61.139 75.4202 61.2415 73.2441 61.2871 70.9883C61.3327 68.7096 61.4124 66.431 61.5264 64.1523C61.6631 61.8737 61.9821 59.7204 62.4834 57.6924C62.734 56.6214 63.0645 55.6302 63.4746 54.7188C63.8848 53.8073 64.3177 52.9642 64.7734 52.1895C61.7201 51.5742 58.6781 50.7995 55.6475 49.8652C52.6396 48.9082 49.6888 47.9967 46.7949 47.1309C43.9238 46.2422 41.1439 45.4788 38.4551 44.8408C35.7891 44.2028 33.2712 43.8838 30.9014 43.8838C28.7367 43.8838 26.7314 44.1914 24.8857 44.8066C23.0628 45.4219 21.4792 46.2878 20.1348 47.4043C18.8132 48.5208 17.7764 49.8652 17.0244 51.4375C16.2952 53.0098 15.9307 54.7529 15.9307 56.667C15.9307 58.057 16.1699 59.333 16.6484 60.4951C17.1497 61.6572 17.8333 62.6712 18.6992 63.5371C19.5651 64.3802 20.5905 65.041 21.7754 65.5195C22.9603 65.998 24.2591 66.2373 25.6719 66.2373C27.153 66.2373 28.4746 66.0208 29.6367 65.5879C30.7988 65.1322 31.8242 64.5739 32.7129 63.9131C33.6016 63.2523 34.3535 62.5345 34.9688 61.7598C35.6068 60.985 36.1195 60.2673 36.5068 59.6064C36.917 58.9229 37.2132 58.3646 37.3955 57.9316C37.6006 57.4759 37.7031 57.248 37.7031 57.248C37.7943 56.9974 37.9538 56.7923 38.1816 56.6328C38.4095 56.4733 38.6602 56.3936 38.9336 56.3936C39.321 56.3936 39.6286 56.5303 39.8564 56.8037C40.1071 57.0544 40.2324 57.3506 40.2324 57.6924C40.2324 57.7607 40.221 57.8291 40.1982 57.8975C40.1982 57.943 40.1868 58 40.1641 58.0684C40.1413 58.1139 40.016 58.4215 39.7881 58.9912C39.5602 59.5381 39.207 60.2103 38.7285 61.0078C38.25 61.7826 37.6348 62.6257 36.8828 63.5371C36.1309 64.4486 35.2194 65.3031 34.1484 66.1006C33.0775 66.8753 31.8356 67.5247 30.4229 68.0488C29.0329 68.5501 27.4378 68.8008 25.6377 68.8008C23.9059 68.8008 22.2881 68.4932 20.7842 67.8779C19.3031 67.2627 18.0042 66.4196 16.8877 65.3486C15.7939 64.2777 14.9281 63.0016 14.29 61.5205C13.6748 60.0394 13.3672 58.4215 13.3672 56.667C13.3672 54.3428 13.8115 52.2464 14.7002 50.3779C15.5889 48.4867 16.8193 46.8688 18.3916 45.5244C19.9639 44.18 21.821 43.1432 23.9629 42.4141C26.1048 41.6849 28.429 41.3203 30.9355 41.3203C32.7585 41.3203 34.5928 41.4798 36.4385 41.7988C38.2842 42.1178 40.1527 42.5394 42.0439 43.0635C43.958 43.5876 45.8949 44.1686 47.8545 44.8066C49.8141 45.4447 51.7965 46.0941 53.8018 46.7549C55.8298 47.3929 57.8805 47.9967 59.9541 48.5664C62.0505 49.1361 64.181 49.6032 66.3457 49.9678C66.9154 49.2614 67.4736 48.6348 68.0205 48.0879C68.5902 47.541 69.0915 47.0967 69.5244 46.7549C69.9801 46.3903 70.3561 46.1169 70.6523 45.9346C70.9486 45.7295 71.1195 45.6156 71.165 45.5928C71.3929 45.4788 71.598 45.4219 71.7803 45.4219ZM98.7822 83.4639C98.6911 83.6462 98.4974 84.0335 98.2012 84.626C97.9277 85.1956 97.5632 85.8564 97.1074 86.6084C96.6745 87.3604 96.1618 88.1465 95.5693 88.9668C94.9769 89.7871 94.3161 90.5391 93.5869 91.2227C92.8577 91.9062 92.0716 92.4759 91.2285 92.9316C90.3854 93.3646 89.4967 93.5811 88.5625 93.5811C87.2409 93.5811 86.1243 93.1595 85.2129 92.3164C84.3242 91.4733 83.6748 90.4137 83.2646 89.1377C82.4899 90.4365 81.5671 91.4733 80.4961 92.248C79.4251 93 78.3542 93.376 77.2832 93.376C76.4401 93.376 75.6768 93.2279 74.9932 92.9316C74.3096 92.6126 73.7285 92.1797 73.25 91.6328C72.7715 91.0632 72.3955 90.4023 72.1221 89.6504C71.8714 88.8984 71.7461 88.0781 71.7461 87.1895C71.7461 85.4121 72.0423 83.8512 72.6348 82.5068C73.25 81.1396 74.0247 80.0003 74.959 79.0889C75.8932 78.1774 76.9186 77.4938 78.0352 77.0381C79.1745 76.5824 80.2682 76.3545 81.3164 76.3545C82.0228 76.3545 82.6722 76.457 83.2646 76.6621C83.8571 76.8444 84.3584 77.0495 84.7686 77.2773C85.2015 77.5052 85.5319 77.7217 85.7598 77.9268C85.9876 78.109 86.113 78.2116 86.1357 78.2344C86.3864 78.5306 86.5117 78.8382 86.5117 79.1572C86.5117 79.499 86.3864 79.8066 86.1357 80.0801C85.8851 80.3307 85.5889 80.4561 85.2471 80.4561C84.8825 80.4561 84.5749 80.3307 84.3242 80.0801C84.2786 80.0345 84.1761 79.9548 84.0166 79.8408C83.8571 79.7041 83.6406 79.5674 83.3672 79.4307C83.0938 79.2939 82.7633 79.18 82.376 79.0889C82.0114 78.9749 81.5898 78.918 81.1113 78.918C80.4049 78.918 79.653 79.0775 78.8555 79.3965C78.0579 79.7155 77.3288 80.2168 76.668 80.9004C76.0072 81.5612 75.4489 82.4043 74.9932 83.4297C74.5602 84.4323 74.3438 85.6286 74.3438 87.0186C74.3438 87.4515 74.3893 87.8958 74.4805 88.3516C74.5716 88.7845 74.7311 89.1833 74.959 89.5479C75.1868 89.9124 75.4945 90.2087 75.8818 90.4365C76.2692 90.6644 76.7477 90.7783 77.3174 90.7783C77.7275 90.7783 78.1947 90.6416 78.7188 90.3682C79.2656 90.0947 79.7783 89.6732 80.2568 89.1035C80.7581 88.5339 81.2025 87.8161 81.5898 86.9502C82 86.0843 82.2848 85.0589 82.4443 83.874C82.4899 83.555 82.638 83.293 82.8887 83.0879C83.1393 82.86 83.4355 82.7461 83.7773 82.7461C84.0964 82.7461 84.3698 82.8714 84.5977 83.1221C84.8483 83.3727 84.985 83.6576 85.0078 83.9766C85.0306 84.4095 85.0762 85.0247 85.1445 85.8223C85.2129 86.597 85.361 87.3717 85.5889 88.1465C85.8395 88.9212 86.2041 89.5934 86.6826 90.1631C87.1611 90.7327 87.8219 91.0176 88.665 91.0176C89.2119 91.0176 89.7474 90.8695 90.2715 90.5732C90.8184 90.277 91.3424 89.8896 91.8438 89.4111C92.3678 88.9098 92.8577 88.3516 93.3135 87.7363C93.792 87.0983 94.2249 86.4603 94.6123 85.8223C94.9997 85.1842 95.3415 84.569 95.6377 83.9766C95.9339 83.3841 96.1846 82.8714 96.3896 82.4385C96.5036 82.1878 96.6631 81.9941 96.8682 81.8574C97.096 81.7207 97.3353 81.6523 97.5859 81.6523C97.9733 81.6523 98.2809 81.8005 98.5088 82.0967C98.7594 82.3701 98.8848 82.6663 98.8848 82.9854C98.8848 83.1449 98.8506 83.3044 98.7822 83.4639ZM125.237 83.5322C125.169 83.6689 125.021 83.9538 124.793 84.3867C124.565 84.7969 124.269 85.2868 123.904 85.8564C123.54 86.4033 123.107 86.9958 122.605 87.6338C122.104 88.249 121.557 88.8187 120.965 89.3428C120.372 89.8669 119.734 90.2998 119.051 90.6416C118.367 90.9834 117.661 91.1543 116.932 91.1543C115.747 91.1543 114.744 90.9492 113.924 90.5391C113.104 90.1061 112.431 89.6276 111.907 89.1035C111.543 89.901 111.098 90.6302 110.574 91.291C110.05 91.9518 109.469 92.5215 108.831 93C108.193 93.5013 107.509 93.8887 106.78 94.1621C106.074 94.4355 105.345 94.5723 104.593 94.5723C103.203 94.5723 102.018 94.1621 101.038 93.3418C100.058 92.5215 99.238 91.4277 98.5771 90.0605C97.9391 88.6706 97.4378 87.0641 97.0732 85.2412C96.7087 83.4183 96.4238 81.5042 96.2188 79.499C96.0365 77.4938 95.9225 75.4658 95.877 73.415C95.8314 71.3643 95.8086 69.416 95.8086 67.5703C95.8086 64.0384 95.9111 60.985 96.1162 58.4102C96.3213 55.8125 96.5947 53.6136 96.9365 51.8135C97.3011 49.9906 97.7113 48.5208 98.167 47.4043C98.6455 46.265 99.1468 45.3877 99.6709 44.7725C100.195 44.1344 100.73 43.7015 101.277 43.4736C101.824 43.2458 102.36 43.1318 102.884 43.1318C103.727 43.1318 104.467 43.3825 105.105 43.8838C105.766 44.3851 106.313 45.0915 106.746 46.0029C107.202 46.8916 107.544 47.974 107.771 49.25C107.999 50.526 108.113 51.9274 108.113 53.4541C108.113 55.8923 107.851 58.4102 107.327 61.0078C106.803 63.6055 106.119 66.2031 105.276 68.8008C104.456 71.3757 103.533 73.9163 102.508 76.4229C101.482 78.9066 100.468 81.265 99.4658 83.498C99.6025 84.6146 99.8076 85.6855 100.081 86.7109C100.354 87.7135 100.708 88.6136 101.141 89.4111C101.574 90.1859 102.086 90.8125 102.679 91.291C103.271 91.7467 103.955 91.9746 104.729 91.9746C105.504 91.9746 106.233 91.7581 106.917 91.3252C107.601 90.8695 108.193 90.2884 108.694 89.582C109.196 88.8529 109.583 88.0326 109.856 87.1211C110.153 86.2096 110.301 85.2754 110.301 84.3184C110.301 83.6803 110.232 83.0423 110.096 82.4043C109.982 81.7435 109.788 81.1624 109.515 80.6611C109.264 80.137 108.945 79.7155 108.558 79.3965C108.17 79.0775 107.703 78.918 107.156 78.918C106.746 78.918 106.427 79.0091 106.199 79.1914C105.971 79.3509 105.8 79.5446 105.687 79.7725C105.573 79.9775 105.504 80.1826 105.481 80.3877C105.459 80.5928 105.447 80.7295 105.447 80.7979C105.447 81.1169 105.516 81.4359 105.652 81.7549C105.789 82.0739 106.051 82.3587 106.438 82.6094C106.826 82.8828 107.02 83.2588 107.02 83.7373C107.02 84.1247 106.883 84.4323 106.609 84.6602C106.359 84.888 106.074 85.002 105.755 85.002C105.299 85.002 104.889 84.8652 104.524 84.5918C104.183 84.3184 103.886 83.9766 103.636 83.5664C103.385 83.1335 103.191 82.6777 103.055 82.1992C102.918 81.7207 102.85 81.2764 102.85 80.8662C102.85 80.2054 102.964 79.6016 103.191 79.0547C103.419 78.485 103.727 78.0065 104.114 77.6191C104.524 77.209 104.98 76.9014 105.481 76.6963C106.006 76.4684 106.552 76.3545 107.122 76.3545C108.102 76.3545 108.945 76.5824 109.651 77.0381C110.381 77.4938 110.984 78.0977 111.463 78.8496C111.941 79.6016 112.295 80.4561 112.522 81.4131C112.75 82.3701 112.864 83.3385 112.864 84.3184C112.864 84.888 112.83 85.4463 112.762 85.9932C112.853 86.1755 113.001 86.4147 113.206 86.7109C113.411 87.0072 113.685 87.292 114.026 87.5654C114.368 87.8389 114.778 88.0781 115.257 88.2832C115.735 88.4883 116.294 88.5908 116.932 88.5908C117.479 88.5908 118.037 88.3857 118.606 87.9756C119.199 87.5426 119.757 87.0186 120.281 86.4033C120.828 85.7653 121.329 85.0931 121.785 84.3867C122.241 83.6576 122.617 82.9854 122.913 82.3701C123.027 82.1423 123.187 81.9714 123.392 81.8574C123.597 81.7207 123.825 81.6523 124.075 81.6523C124.463 81.6523 124.77 81.7891 124.998 82.0625C125.249 82.3359 125.374 82.6436 125.374 82.9854C125.374 83.1221 125.328 83.3044 125.237 83.5322ZM98.8164 79.123C99.5911 77.209 100.377 75.2038 101.175 73.1074C101.972 70.9883 102.69 68.835 103.328 66.6475C103.966 64.46 104.49 62.2497 104.9 60.0166C105.311 57.7835 105.516 55.5846 105.516 53.4199C105.516 52.5996 105.47 51.7451 105.379 50.8564C105.311 49.945 105.174 49.1133 104.969 48.3613C104.764 47.6094 104.479 46.9827 104.114 46.4814C103.772 45.9801 103.328 45.7295 102.781 45.7295C102.599 45.7295 102.36 45.8548 102.063 46.1055C101.79 46.3333 101.494 46.7549 101.175 47.3701C100.856 47.9626 100.537 48.7943 100.218 49.8652C99.8988 50.9362 99.6025 52.3034 99.3291 53.9668C99.0785 55.6074 98.862 57.5898 98.6797 59.9141C98.5202 62.2383 98.4404 64.9727 98.4404 68.1172C98.4404 69.1654 98.4518 70.2363 98.4746 71.3301C98.4974 72.401 98.5202 73.4264 98.543 74.4062C98.5885 75.3861 98.6341 76.2861 98.6797 77.1064C98.7253 77.9268 98.7708 78.599 98.8164 79.123ZM142.396 83.5322C142.145 84.0563 141.826 84.6829 141.438 85.4121C141.074 86.1185 140.652 86.859 140.174 87.6338C139.695 88.4085 139.16 89.1833 138.567 89.958C137.975 90.71 137.326 91.3936 136.619 92.0088C135.936 92.6012 135.195 93.0798 134.397 93.4443C133.623 93.8317 132.791 94.0254 131.902 94.0254C130.535 94.0254 129.362 93.6038 128.382 92.7607C127.402 91.9176 126.57 90.8125 125.887 89.4453C125.203 88.0781 124.645 86.5286 124.212 84.7969C123.802 83.0423 123.483 81.265 123.255 79.4648C123.027 77.6419 122.868 75.876 122.776 74.167C122.708 72.458 122.674 70.9427 122.674 69.6211C122.674 67.707 122.731 65.7246 122.845 63.6738C122.981 61.623 123.187 59.6178 123.46 57.6582C123.733 55.6986 124.075 53.8415 124.485 52.0869C124.918 50.3324 125.42 48.7943 125.989 47.4727C126.582 46.151 127.254 45.1029 128.006 44.3281C128.758 43.5534 129.612 43.166 130.569 43.166C131.321 43.166 131.993 43.3483 132.586 43.7129C133.201 44.0547 133.714 44.6243 134.124 45.4219C134.534 46.2194 134.853 47.2562 135.081 48.5322C135.309 49.8083 135.423 51.3691 135.423 53.2148C135.423 55.4935 135.184 57.8519 134.705 60.29C134.227 62.7054 133.577 65.1436 132.757 67.6045C131.937 70.0654 130.968 72.5264 129.852 74.9873C128.735 77.4255 127.539 79.8066 126.263 82.1309C126.832 85.0247 127.596 87.3034 128.553 88.9668C129.51 90.6074 130.66 91.4277 132.005 91.4277C132.916 91.4277 133.794 91.0745 134.637 90.3682C135.48 89.639 136.255 88.7845 136.961 87.8047C137.667 86.8249 138.283 85.8337 138.807 84.8311C139.354 83.8057 139.775 82.9854 140.071 82.3701C140.185 82.1423 140.345 81.9714 140.55 81.8574C140.755 81.7207 140.983 81.6523 141.233 81.6523C141.621 81.6523 141.928 81.7891 142.156 82.0625C142.407 82.3359 142.532 82.6436 142.532 82.9854C142.532 83.1221 142.487 83.3044 142.396 83.5322ZM125.271 69.792C125.271 71.2503 125.306 72.6517 125.374 73.9961C125.442 75.3405 125.534 76.6279 125.647 77.8584C126.604 76.0127 127.516 74.0531 128.382 71.9795C129.248 69.8831 130.011 67.7754 130.672 65.6562C131.333 63.5143 131.857 61.3952 132.244 59.2988C132.654 57.1797 132.859 55.1631 132.859 53.249C132.859 50.5602 132.643 48.6348 132.21 47.4727C131.777 46.3105 131.196 45.7295 130.467 45.7295C129.988 45.7295 129.521 46.0599 129.065 46.7207C128.632 47.3815 128.222 48.2816 127.835 49.4209C127.448 50.5602 127.094 51.9046 126.775 53.4541C126.456 55.0036 126.183 56.667 125.955 58.4443C125.75 60.2217 125.579 62.0788 125.442 64.0156C125.328 65.9525 125.271 67.8779 125.271 69.792ZM144.207 89.2402C144.686 89.901 145.301 90.4365 146.053 90.8467C146.805 91.234 147.728 91.4277 148.821 91.4277C149.938 91.4277 150.952 91.1657 151.863 90.6416C152.775 90.0947 153.606 89.3883 154.358 88.5225C155.11 87.6566 155.783 86.6882 156.375 85.6172C156.967 84.5462 157.503 83.4753 157.981 82.4043C158.095 82.1536 158.255 81.9714 158.46 81.8574C158.665 81.7207 158.893 81.6523 159.144 81.6523C159.531 81.6523 159.839 81.7891 160.066 82.0625C160.317 82.3359 160.442 82.6322 160.442 82.9512C160.442 83.0651 160.431 83.1676 160.408 83.2588C160.385 83.3271 160.351 83.4069 160.306 83.498C158.733 86.9616 157.013 89.5706 155.145 91.3252C153.299 93.0798 151.202 93.9798 148.855 94.0254C147.352 94.0254 146.053 93.7292 144.959 93.1367C143.865 92.5671 142.965 91.8265 142.259 90.915C141.552 89.9808 141.028 88.9326 140.687 87.7705C140.345 86.6084 140.174 85.4463 140.174 84.2842C140.174 83.1221 140.311 82.0511 140.584 81.0713C140.88 80.0915 141.29 79.237 141.814 78.5078C142.361 77.7786 142.999 77.209 143.729 76.7988C144.48 76.3887 145.301 76.1836 146.189 76.1836C146.714 76.1836 147.226 76.2975 147.728 76.5254C148.252 76.7305 148.719 77.0381 149.129 77.4482C149.539 77.8356 149.869 78.3141 150.12 78.8838C150.371 79.4535 150.496 80.1029 150.496 80.832C150.496 81.7663 150.337 82.6436 150.018 83.4639C149.699 84.2842 149.254 85.0475 148.685 85.7539C148.138 86.4603 147.477 87.1097 146.702 87.7021C145.927 88.2946 145.096 88.8073 144.207 89.2402ZM143.182 87.0186C143.888 86.7223 144.526 86.3464 145.096 85.8906C145.688 85.4349 146.189 84.9336 146.6 84.3867C147.01 83.8398 147.329 83.2702 147.557 82.6777C147.785 82.0625 147.898 81.4473 147.898 80.832C147.898 80.1484 147.728 79.6357 147.386 79.2939C147.044 78.9294 146.645 78.7471 146.189 78.7471C145.574 78.7471 145.05 78.918 144.617 79.2598C144.184 79.6016 143.831 80.0459 143.558 80.5928C143.284 81.1396 143.079 81.7549 142.942 82.4385C142.828 83.0993 142.771 83.7601 142.771 84.4209C142.771 84.8311 142.806 85.264 142.874 85.7197C142.965 86.1755 143.068 86.6084 143.182 87.0186Z" fill="#1E1E1E"/>
<path d="M47.3 108H56.32V110.6H50.26V113.86H55.84V116.46H50.26V122H47.3V108ZM67.8356 119.02H63.1156L61.9756 122H59.0156L64.4956 107.9H66.6756L72.1756 122H69.0356L67.8356 119.02ZM63.9356 116.68H67.1356L66.0556 113.76L65.5756 111.54H65.4756L64.9956 113.78L63.9356 116.68ZM82.0397 118.16C82.0397 117.747 81.8664 117.42 81.5197 117.18C81.173 116.94 80.7397 116.72 80.2197 116.52C79.713 116.32 79.1597 116.12 78.5597 115.92C77.9597 115.72 77.3997 115.453 76.8797 115.12C76.373 114.787 75.9464 114.367 75.5997 113.86C75.253 113.353 75.0797 112.693 75.0797 111.88C75.0797 111.187 75.1997 110.58 75.4397 110.06C75.693 109.527 76.0397 109.093 76.4797 108.76C76.933 108.413 77.473 108.153 78.0997 107.98C78.7397 107.807 79.4397 107.72 80.1997 107.72C81.0797 107.72 81.913 107.8 82.6997 107.96C83.4997 108.107 84.153 108.32 84.6597 108.6L83.7197 111.08C83.5597 110.987 83.353 110.893 83.0997 110.8C82.8597 110.693 82.5797 110.607 82.2597 110.54C81.9397 110.46 81.5997 110.4 81.2397 110.36C80.8797 110.307 80.513 110.28 80.1397 110.28C79.473 110.28 78.953 110.4 78.5797 110.64C78.2197 110.867 78.0397 111.187 78.0397 111.6C78.0397 112.013 78.213 112.347 78.5597 112.6C78.9064 112.84 79.333 113.067 79.8397 113.28C80.3597 113.48 80.9197 113.687 81.5197 113.9C82.1197 114.1 82.673 114.367 83.1797 114.7C83.6997 115.02 84.133 115.427 84.4797 115.92C84.8264 116.413 84.9997 117.047 84.9997 117.82C84.9997 118.593 84.8664 119.26 84.5997 119.82C84.333 120.38 83.953 120.847 83.4597 121.22C82.9797 121.58 82.3997 121.847 81.7197 122.02C81.0397 122.193 80.293 122.28 79.4797 122.28C78.933 122.28 78.413 122.247 77.9197 122.18C77.4397 122.127 76.993 122.06 76.5797 121.98C76.1664 121.887 75.7997 121.793 75.4797 121.7C75.173 121.593 74.9264 121.493 74.7397 121.4L75.7197 118.9C75.8664 118.98 76.0664 119.067 76.3197 119.16C76.5864 119.253 76.8797 119.347 77.1997 119.44C77.5197 119.52 77.8597 119.587 78.2197 119.64C78.593 119.693 78.9664 119.72 79.3397 119.72C80.2197 119.72 80.8864 119.593 81.3397 119.34C81.8064 119.087 82.0397 118.693 82.0397 118.16ZM97.5436 116.22H91.9436V122H88.9836V108H91.9436V113.62H97.5436V108H100.504V122H97.5436V116.22ZM106.205 109.6H104.605V108H110.765V109.6H109.165V120.4H110.765V122H104.605V120.4H106.205V109.6ZM114.359 115C114.359 113.853 114.505 112.827 114.799 111.92C115.092 111.013 115.512 110.253 116.059 109.64C116.619 109.013 117.299 108.54 118.099 108.22C118.899 107.887 119.805 107.72 120.819 107.72C121.899 107.72 122.839 107.9 123.639 108.26C124.452 108.607 125.125 109.1 125.659 109.74C126.205 110.38 126.612 111.147 126.879 112.04C127.159 112.933 127.299 113.92 127.299 115C127.299 116.147 127.145 117.173 126.839 118.08C126.545 118.987 126.119 119.753 125.559 120.38C124.999 120.993 124.319 121.467 123.519 121.8C122.719 122.12 121.819 122.28 120.819 122.28C119.739 122.28 118.792 122.107 117.979 121.76C117.179 121.4 116.505 120.9 115.959 120.26C115.425 119.62 115.025 118.853 114.759 117.96C114.492 117.067 114.359 116.08 114.359 115ZM117.499 115C117.499 115.693 117.565 116.327 117.699 116.9C117.832 117.473 118.032 117.967 118.299 118.38C118.565 118.793 118.905 119.113 119.319 119.34C119.745 119.567 120.245 119.68 120.819 119.68C121.872 119.68 122.692 119.32 123.279 118.6C123.865 117.88 124.159 116.68 124.159 115C124.159 114.333 124.099 113.713 123.979 113.14C123.859 112.567 123.659 112.073 123.379 111.66C123.112 111.233 122.765 110.907 122.339 110.68C121.925 110.44 121.419 110.32 120.819 110.32C119.779 110.32 118.965 110.693 118.379 111.44C117.792 112.187 117.499 113.373 117.499 115ZM135.17 114.7L133.97 112.6H133.87L134.19 114.72V122H131.39V107.9H133.53L139.31 115.36L140.45 117.4H140.57L140.25 115.34V108H143.05V122.1H140.91L135.17 114.7Z" fill="black"/>
<path d="M65 142.787C77.7884 139.724 94.7198 137.981 108.438 138.485C111.352 138.592 113.6 138.47 116.533 139.007" stroke="black" stroke-width="3" stroke-linecap="round"/>
</svg>
