<svg width="191" height="136" viewBox="0 0 191 136" fill="none" xmlns="http://www.w3.org/2000/svg">
<path d="M76.8604 22.8281C77.2705 22.8281 77.6514 22.9893 78.0029 23.3115C78.3838 23.6045 78.5742 24 78.5742 24.498C78.5742 25.1133 78.2959 25.582 77.7393 25.9043C77.71 25.9336 77.2998 26.2119 76.5088 26.7393C75.7471 27.2666 74.8389 28.0869 73.7842 29.2002C75.9814 29.4639 78.2227 29.5957 80.5078 29.5957C82.7344 29.5957 84.7559 29.4492 86.5723 29.1562C88.418 28.834 90.0586 28.4092 91.4941 27.8818C92.959 27.3252 94.2188 26.6807 95.2734 25.9482C96.3574 25.2158 97.251 24.4102 97.9541 23.5312C98.1299 23.3262 98.335 23.165 98.5693 23.0479C98.8037 22.9014 99.0527 22.8281 99.3164 22.8281C99.7852 22.8281 100.166 23.0039 100.459 23.3555C100.781 23.707 100.942 24.0879 100.942 24.498C100.942 24.9082 100.84 25.2305 100.635 25.4648C99.9316 26.4023 98.9941 27.3252 97.8223 28.2334C96.6504 29.1123 95.2295 29.9033 93.5596 30.6064C91.8896 31.3096 89.9707 31.8809 87.8027 32.3203C85.6348 32.7305 83.2178 32.9355 80.5518 32.9355C79.0283 32.9355 77.5049 32.877 75.9814 32.7598C74.458 32.6133 72.9346 32.4229 71.4111 32.1885C70.7373 33.1553 70.1074 34.2393 69.5215 35.4404C68.9648 36.6416 68.5107 37.96 68.1592 39.3955C67.5439 41.8564 67.1924 44.4639 67.1045 47.2178C67.0459 49.9717 66.9873 52.7842 66.9287 55.6553C66.8994 58.4971 66.7676 61.3389 66.5332 64.1807C66.2988 66.9932 65.7422 69.7178 64.8633 72.3545C64.1895 74.3467 63.2812 76.1924 62.1387 77.8916C61.0254 79.5908 59.6484 81.0703 58.0078 82.3301C56.3965 83.5605 54.5361 84.5273 52.4268 85.2305C50.3467 85.9629 48.0029 86.3291 45.3955 86.3291C41.1182 86.3291 37.251 85.4795 33.7939 83.7803C30.3369 82.0811 27.334 79.4004 24.7852 75.7383C24.6973 75.5918 24.5801 75.3867 24.4336 75.123C24.2871 74.8594 24.2139 74.5957 24.2139 74.332C24.2139 73.9219 24.3604 73.5264 24.6533 73.1455C24.9463 72.7646 25.3564 72.5742 25.8838 72.5742C26.2061 72.5742 26.499 72.6621 26.7627 72.8379C27.0264 72.9844 27.2314 73.1748 27.3779 73.4092C29.5166 76.6904 32.0215 79.1221 34.8926 80.7041C37.7637 82.2568 41.25 83.0332 45.3516 83.0332C47.5195 83.0332 49.4678 82.7695 51.1963 82.2422C52.9248 81.6855 54.4482 80.9092 55.7666 79.9131C57.1143 78.8877 58.2715 77.6426 59.2383 76.1777C60.2051 74.7129 61.0107 73.043 61.6553 71.168C62.3584 69.1172 62.7979 66.7588 62.9736 64.0928C63.1787 61.3975 63.3105 58.5996 63.3691 55.6992C63.4277 52.7695 63.5303 49.8398 63.6768 46.9102C63.8525 43.9805 64.2627 41.2119 64.9072 38.6045C65.2295 37.2275 65.6543 35.9531 66.1816 34.7812C66.709 33.6094 67.2656 32.5254 67.8516 31.5293C63.9258 30.7383 60.0146 29.7422 56.1182 28.541C52.251 27.3105 48.457 26.1387 44.7363 25.0254C41.0449 23.8828 37.4707 22.9014 34.0137 22.0811C30.5859 21.2607 27.3486 20.8506 24.3018 20.8506C21.5186 20.8506 18.9404 21.2461 16.5674 22.0371C14.2236 22.8281 12.1875 23.9414 10.459 25.377C8.75977 26.8125 7.42676 28.541 6.45996 30.5625C5.52246 32.584 5.05371 34.8252 5.05371 37.2861C5.05371 39.0732 5.36133 40.7139 5.97656 42.208C6.62109 43.7021 7.5 45.0059 8.61328 46.1191C9.72656 47.2031 11.0449 48.0527 12.5684 48.668C14.0918 49.2832 15.7617 49.5908 17.5781 49.5908C19.4824 49.5908 21.1816 49.3125 22.6758 48.7559C24.1699 48.1699 25.4883 47.4521 26.6309 46.6025C27.7734 45.7529 28.7402 44.8301 29.5312 43.834C30.3516 42.8379 31.0107 41.915 31.5088 41.0654C32.0361 40.1865 32.417 39.4688 32.6514 38.9121C32.915 38.3262 33.0469 38.0332 33.0469 38.0332C33.1641 37.7109 33.3691 37.4473 33.6621 37.2422C33.9551 37.0371 34.2773 36.9346 34.6289 36.9346C35.127 36.9346 35.5225 37.1104 35.8154 37.4619C36.1377 37.7842 36.2988 38.165 36.2988 38.6045C36.2988 38.6924 36.2842 38.7803 36.2549 38.8682C36.2549 38.9268 36.2402 39 36.2109 39.0879C36.1816 39.1465 36.0205 39.542 35.7275 40.2744C35.4346 40.9775 34.9805 41.8418 34.3652 42.8672C33.75 43.8633 32.959 44.9473 31.9922 46.1191C31.0254 47.291 29.8535 48.3896 28.4766 49.415C27.0996 50.4111 25.5029 51.2461 23.6865 51.9199C21.8994 52.5645 19.8486 52.8867 17.5342 52.8867C15.3076 52.8867 13.2275 52.4912 11.2939 51.7002C9.38965 50.9092 7.71973 49.8252 6.28418 48.4482C4.87793 47.0713 3.76465 45.4307 2.94434 43.5264C2.15332 41.6221 1.75781 39.542 1.75781 37.2861C1.75781 34.2979 2.3291 31.6025 3.47168 29.2002C4.61426 26.7686 6.19629 24.6885 8.21777 22.96C10.2393 21.2314 12.627 19.8984 15.3809 18.9609C18.1348 18.0234 21.123 17.5547 24.3457 17.5547C26.6895 17.5547 29.0479 17.7598 31.4209 18.1699C33.7939 18.5801 36.1963 19.1221 38.6279 19.7959C41.0889 20.4697 43.5791 21.2168 46.0986 22.0371C48.6182 22.8574 51.167 23.6924 53.7451 24.542C56.3525 25.3623 58.9893 26.1387 61.6553 26.8711C64.3506 27.6035 67.0898 28.2041 69.873 28.6729C70.6055 27.7646 71.3232 26.959 72.0264 26.2559C72.7588 25.5527 73.4033 24.9814 73.96 24.542C74.5459 24.0732 75.0293 23.7217 75.4102 23.4873C75.791 23.2236 76.0107 23.0771 76.0693 23.0479C76.3623 22.9014 76.626 22.8281 76.8604 22.8281ZM111.577 71.7393C111.46 71.9736 111.211 72.4717 110.83 73.2334C110.479 73.9658 110.01 74.8154 109.424 75.7822C108.867 76.749 108.208 77.7598 107.446 78.8145C106.685 79.8691 105.835 80.8359 104.897 81.7148C103.96 82.5938 102.949 83.3262 101.865 83.9121C100.781 84.4688 99.6387 84.7471 98.4375 84.7471C96.7383 84.7471 95.3027 84.2051 94.1309 83.1211C92.9883 82.0371 92.1533 80.6748 91.626 79.0342C90.6299 80.7041 89.4434 82.0371 88.0664 83.0332C86.6895 84 85.3125 84.4834 83.9355 84.4834C82.8516 84.4834 81.8701 84.293 80.9912 83.9121C80.1123 83.502 79.3652 82.9453 78.75 82.2422C78.1348 81.5098 77.6514 80.6602 77.2998 79.6934C76.9775 78.7266 76.8164 77.6719 76.8164 76.5293C76.8164 74.2441 77.1973 72.2373 77.959 70.5088C78.75 68.751 79.7461 67.2861 80.9473 66.1143C82.1484 64.9424 83.4668 64.0635 84.9023 63.4775C86.3672 62.8916 87.7734 62.5986 89.1211 62.5986C90.0293 62.5986 90.8643 62.7305 91.626 62.9941C92.3877 63.2285 93.0322 63.4922 93.5596 63.7852C94.1162 64.0781 94.541 64.3564 94.834 64.6201C95.127 64.8545 95.2881 64.9863 95.3174 65.0156C95.6396 65.3965 95.8008 65.792 95.8008 66.2021C95.8008 66.6416 95.6396 67.0371 95.3174 67.3887C94.9951 67.7109 94.6143 67.8721 94.1748 67.8721C93.7061 67.8721 93.3105 67.7109 92.9883 67.3887C92.9297 67.3301 92.7979 67.2275 92.5928 67.0811C92.3877 66.9053 92.1094 66.7295 91.7578 66.5537C91.4062 66.3779 90.9814 66.2314 90.4834 66.1143C90.0146 65.9678 89.4727 65.8945 88.8574 65.8945C87.9492 65.8945 86.9824 66.0996 85.957 66.5098C84.9316 66.9199 83.9941 67.5645 83.1445 68.4434C82.2949 69.293 81.5771 70.377 80.9912 71.6953C80.4346 72.9844 80.1562 74.5225 80.1562 76.3096C80.1562 76.8662 80.2148 77.4375 80.332 78.0234C80.4492 78.5801 80.6543 79.0928 80.9473 79.5615C81.2402 80.0303 81.6357 80.4111 82.1338 80.7041C82.6318 80.9971 83.2471 81.1436 83.9795 81.1436C84.5068 81.1436 85.1074 80.9678 85.7812 80.6162C86.4844 80.2646 87.1436 79.7227 87.7588 78.9902C88.4033 78.2578 88.9746 77.335 89.4727 76.2217C90 75.1084 90.3662 73.79 90.5713 72.2666C90.6299 71.8564 90.8203 71.5195 91.1426 71.2559C91.4648 70.9629 91.8457 70.8164 92.2852 70.8164C92.6953 70.8164 93.0469 70.9775 93.3398 71.2998C93.6621 71.6221 93.8379 71.9883 93.8672 72.3984C93.8965 72.9551 93.9551 73.7461 94.043 74.7715C94.1309 75.7676 94.3213 76.7637 94.6143 77.7598C94.9365 78.7559 95.4053 79.6201 96.0205 80.3525C96.6357 81.085 97.4854 81.4512 98.5693 81.4512C99.2725 81.4512 99.9609 81.2607 100.635 80.8799C101.338 80.499 102.012 80.001 102.656 79.3857C103.33 78.7412 103.96 78.0234 104.546 77.2324C105.161 76.4121 105.718 75.5918 106.216 74.7715C106.714 73.9512 107.153 73.1602 107.534 72.3984C107.915 71.6367 108.237 70.9775 108.501 70.4209C108.647 70.0986 108.853 69.8496 109.116 69.6738C109.409 69.498 109.717 69.4102 110.039 69.4102C110.537 69.4102 110.933 69.6006 111.226 69.9814C111.548 70.333 111.709 70.7139 111.709 71.124C111.709 71.3291 111.665 71.5342 111.577 71.7393ZM145.591 71.8271C145.503 72.0029 145.312 72.3691 145.02 72.9258C144.727 73.4531 144.346 74.083 143.877 74.8154C143.408 75.5186 142.852 76.2803 142.207 77.1006C141.562 77.8916 140.859 78.624 140.098 79.2979C139.336 79.9717 138.516 80.5283 137.637 80.9678C136.758 81.4072 135.85 81.627 134.912 81.627C133.389 81.627 132.1 81.3633 131.045 80.8359C129.99 80.2793 129.126 79.6641 128.452 78.9902C127.983 80.0156 127.412 80.9531 126.738 81.8027C126.064 82.6523 125.317 83.3848 124.497 84C123.677 84.6445 122.798 85.1426 121.86 85.4941C120.952 85.8457 120.015 86.0215 119.048 86.0215C117.261 86.0215 115.737 85.4941 114.478 84.4395C113.218 83.3848 112.163 81.9785 111.313 80.2207C110.493 78.4336 109.849 76.3682 109.38 74.0244C108.911 71.6807 108.545 69.2197 108.281 66.6416C108.047 64.0635 107.9 61.4561 107.842 58.8193C107.783 56.1826 107.754 53.6777 107.754 51.3047C107.754 46.7637 107.886 42.8379 108.149 39.5273C108.413 36.1875 108.765 33.3604 109.204 31.0459C109.673 28.7021 110.2 26.8125 110.786 25.377C111.401 23.9121 112.046 22.7842 112.72 21.9932C113.394 21.1729 114.082 20.6162 114.785 20.3232C115.488 20.0303 116.177 19.8838 116.851 19.8838C117.935 19.8838 118.887 20.2061 119.707 20.8506C120.557 21.4951 121.26 22.4033 121.816 23.5752C122.402 24.7178 122.842 26.1094 123.135 27.75C123.428 29.3906 123.574 31.1924 123.574 33.1553C123.574 36.29 123.237 39.5273 122.563 42.8672C121.89 46.207 121.011 49.5469 119.927 52.8867C118.872 56.1973 117.686 59.4639 116.367 62.6865C115.049 65.8799 113.745 68.9121 112.456 71.7832C112.632 73.2188 112.896 74.5957 113.247 75.9141C113.599 77.2031 114.053 78.3604 114.609 79.3857C115.166 80.3818 115.825 81.1875 116.587 81.8027C117.349 82.3887 118.228 82.6816 119.224 82.6816C120.22 82.6816 121.157 82.4033 122.036 81.8467C122.915 81.2607 123.677 80.5137 124.321 79.6055C124.966 78.668 125.464 77.6133 125.815 76.4414C126.196 75.2695 126.387 74.0684 126.387 72.8379C126.387 72.0176 126.299 71.1973 126.123 70.377C125.977 69.5273 125.728 68.7803 125.376 68.1357C125.054 67.4619 124.644 66.9199 124.146 66.5098C123.647 66.0996 123.047 65.8945 122.344 65.8945C121.816 65.8945 121.406 66.0117 121.113 66.2461C120.82 66.4512 120.601 66.7002 120.454 66.9932C120.308 67.2568 120.22 67.5205 120.19 67.7842C120.161 68.0479 120.146 68.2236 120.146 68.3115C120.146 68.7217 120.234 69.1318 120.41 69.542C120.586 69.9521 120.923 70.3184 121.421 70.6406C121.919 70.9922 122.168 71.4756 122.168 72.0908C122.168 72.5889 121.992 72.9844 121.641 73.2773C121.318 73.5703 120.952 73.7168 120.542 73.7168C119.956 73.7168 119.429 73.541 118.96 73.1895C118.521 72.8379 118.14 72.3984 117.817 71.8711C117.495 71.3145 117.246 70.7285 117.07 70.1133C116.895 69.498 116.807 68.9268 116.807 68.3994C116.807 67.5498 116.953 66.7734 117.246 66.0703C117.539 65.3379 117.935 64.7227 118.433 64.2246C118.96 63.6973 119.546 63.3018 120.19 63.0381C120.864 62.7451 121.567 62.5986 122.3 62.5986C123.56 62.5986 124.644 62.8916 125.552 63.4775C126.489 64.0635 127.266 64.8398 127.881 65.8066C128.496 66.7734 128.95 67.8721 129.243 69.1025C129.536 70.333 129.683 71.5781 129.683 72.8379C129.683 73.5703 129.639 74.2881 129.551 74.9912C129.668 75.2256 129.858 75.5332 130.122 75.9141C130.386 76.2949 130.737 76.6611 131.177 77.0127C131.616 77.3643 132.144 77.6719 132.759 77.9355C133.374 78.1992 134.092 78.3311 134.912 78.3311C135.615 78.3311 136.333 78.0674 137.065 77.54C137.827 76.9834 138.545 76.3096 139.219 75.5186C139.922 74.6982 140.566 73.834 141.152 72.9258C141.738 71.9883 142.222 71.124 142.603 70.333C142.749 70.04 142.954 69.8203 143.218 69.6738C143.481 69.498 143.774 69.4102 144.097 69.4102C144.595 69.4102 144.99 69.5859 145.283 69.9375C145.605 70.2891 145.767 70.6846 145.767 71.124C145.767 71.2998 145.708 71.5342 145.591 71.8271ZM111.621 66.1582C112.617 63.6973 113.628 61.1191 114.653 58.4238C115.679 55.6992 116.602 52.9307 117.422 50.1182C118.242 47.3057 118.916 44.4639 119.443 41.5928C119.971 38.7217 120.234 35.8945 120.234 33.1113C120.234 32.0566 120.176 30.958 120.059 29.8154C119.971 28.6436 119.795 27.5742 119.531 26.6074C119.268 25.6406 118.901 24.835 118.433 24.1904C117.993 23.5459 117.422 23.2236 116.719 23.2236C116.484 23.2236 116.177 23.3848 115.796 23.707C115.444 24 115.063 24.542 114.653 25.333C114.243 26.0947 113.833 27.1641 113.423 28.541C113.013 29.918 112.632 31.6758 112.28 33.8145C111.958 35.9238 111.68 38.4727 111.445 41.4609C111.24 44.4492 111.138 47.9648 111.138 52.0078C111.138 53.3555 111.152 54.7324 111.182 56.1387C111.211 57.5156 111.24 58.834 111.27 60.0938C111.328 61.3535 111.387 62.5107 111.445 63.5654C111.504 64.6201 111.562 65.4844 111.621 66.1582ZM167.651 71.8271C167.329 72.501 166.919 73.3066 166.421 74.2441C165.952 75.1523 165.41 76.1045 164.795 77.1006C164.18 78.0967 163.491 79.0928 162.729 80.0889C161.968 81.0557 161.133 81.9346 160.225 82.7256C159.346 83.4873 158.394 84.1025 157.368 84.5713C156.372 85.0693 155.303 85.3184 154.16 85.3184C152.402 85.3184 150.894 84.7764 149.634 83.6924C148.374 82.6084 147.305 81.1875 146.426 79.4297C145.547 77.6719 144.829 75.6797 144.272 73.4531C143.745 71.1973 143.335 68.9121 143.042 66.5977C142.749 64.2539 142.544 61.9834 142.427 59.7861C142.339 57.5889 142.295 55.6406 142.295 53.9414C142.295 51.4805 142.368 48.9316 142.515 46.2949C142.69 43.6582 142.954 41.0801 143.306 38.5605C143.657 36.041 144.097 33.6533 144.624 31.3975C145.181 29.1416 145.825 27.1641 146.558 25.4648C147.319 23.7656 148.184 22.418 149.15 21.4219C150.117 20.4258 151.216 19.9277 152.446 19.9277C153.413 19.9277 154.277 20.1621 155.039 20.6309C155.83 21.0703 156.489 21.8027 157.017 22.8281C157.544 23.8535 157.954 25.1865 158.247 26.8271C158.54 28.4678 158.687 30.4746 158.687 32.8477C158.687 35.7773 158.379 38.8096 157.764 41.9443C157.148 45.0498 156.313 48.1846 155.259 51.3486C154.204 54.5127 152.959 57.6768 151.523 60.8408C150.088 63.9756 148.55 67.0371 146.909 70.0254C147.642 73.7461 148.623 76.6758 149.854 78.8145C151.084 80.9238 152.563 81.9785 154.292 81.9785C155.464 81.9785 156.592 81.5244 157.676 80.6162C158.76 79.6787 159.756 78.5801 160.664 77.3203C161.572 76.0605 162.363 74.7861 163.037 73.4971C163.74 72.1787 164.282 71.124 164.663 70.333C164.81 70.04 165.015 69.8203 165.278 69.6738C165.542 69.498 165.835 69.4102 166.157 69.4102C166.655 69.4102 167.051 69.5859 167.344 69.9375C167.666 70.2891 167.827 70.6846 167.827 71.124C167.827 71.2998 167.769 71.5342 167.651 71.8271ZM145.635 54.1611C145.635 56.0361 145.679 57.8379 145.767 59.5664C145.854 61.2949 145.972 62.9502 146.118 64.5322C147.349 62.1592 148.521 59.6396 149.634 56.9736C150.747 54.2783 151.729 51.5684 152.578 48.8438C153.428 46.0898 154.102 43.3652 154.6 40.6699C155.127 37.9453 155.391 35.3525 155.391 32.8916C155.391 29.4346 155.112 26.959 154.556 25.4648C153.999 23.9707 153.252 23.2236 152.314 23.2236C151.699 23.2236 151.099 23.6484 150.513 24.498C149.956 25.3477 149.429 26.5049 148.931 27.9697C148.433 29.4346 147.979 31.1631 147.568 33.1553C147.158 35.1475 146.807 37.2861 146.514 39.5713C146.25 41.8564 146.03 44.2441 145.854 46.7344C145.708 49.2246 145.635 51.7002 145.635 54.1611ZM169.98 79.166C170.596 80.0156 171.387 80.7041 172.354 81.2314C173.32 81.7295 174.507 81.9785 175.913 81.9785C177.349 81.9785 178.652 81.6416 179.824 80.9678C180.996 80.2646 182.065 79.3564 183.032 78.2432C183.999 77.1299 184.863 75.8848 185.625 74.5078C186.387 73.1309 187.075 71.7539 187.69 70.377C187.837 70.0547 188.042 69.8203 188.306 69.6738C188.569 69.498 188.862 69.4102 189.185 69.4102C189.683 69.4102 190.078 69.5859 190.371 69.9375C190.693 70.2891 190.854 70.6699 190.854 71.0801C190.854 71.2266 190.84 71.3584 190.811 71.4756C190.781 71.5635 190.737 71.666 190.679 71.7832C188.657 76.2363 186.445 79.5908 184.043 81.8467C181.67 84.1025 178.975 85.2598 175.957 85.3184C174.023 85.3184 172.354 84.9375 170.947 84.1758C169.541 83.4434 168.384 82.4912 167.476 81.3193C166.567 80.1182 165.894 78.7705 165.454 77.2764C165.015 75.7822 164.795 74.2881 164.795 72.7939C164.795 71.2998 164.971 69.9229 165.322 68.6631C165.703 67.4033 166.23 66.3047 166.904 65.3672C167.607 64.4297 168.428 63.6973 169.365 63.1699C170.332 62.6426 171.387 62.3789 172.529 62.3789C173.203 62.3789 173.862 62.5254 174.507 62.8184C175.181 63.082 175.781 63.4775 176.309 64.0049C176.836 64.5029 177.261 65.1182 177.583 65.8506C177.905 66.583 178.066 67.418 178.066 68.3555C178.066 69.5566 177.861 70.6846 177.451 71.7393C177.041 72.7939 176.47 73.7754 175.737 74.6836C175.034 75.5918 174.185 76.4268 173.188 77.1885C172.192 77.9502 171.123 78.6094 169.98 79.166ZM168.662 76.3096C169.57 75.9287 170.391 75.4453 171.123 74.8594C171.885 74.2734 172.529 73.6289 173.057 72.9258C173.584 72.2227 173.994 71.4902 174.287 70.7285C174.58 69.9375 174.727 69.1465 174.727 68.3555C174.727 67.4766 174.507 66.8174 174.067 66.3779C173.628 65.9092 173.115 65.6748 172.529 65.6748C171.738 65.6748 171.064 65.8945 170.508 66.334C169.951 66.7734 169.497 67.3447 169.146 68.0479C168.794 68.751 168.53 69.542 168.354 70.4209C168.208 71.2705 168.135 72.1201 168.135 72.9697C168.135 73.4971 168.179 74.0537 168.267 74.6396C168.384 75.2256 168.516 75.7822 168.662 76.3096Z" fill="#1E1E1E"/>
<path d="M51.3 92H60.32V94.6H54.26V97.86H59.84V100.46H54.26V106H51.3V92ZM71.8356 103.02H67.1156L65.9756 106H63.0156L68.4956 91.9H70.6756L76.1756 106H73.0356L71.8356 103.02ZM67.9356 100.68H71.1356L70.0556 97.76L69.5756 95.54H69.4756L68.9956 97.78L67.9356 100.68ZM86.0397 102.16C86.0397 101.747 85.8664 101.42 85.5197 101.18C85.173 100.94 84.7397 100.72 84.2197 100.52C83.713 100.32 83.1597 100.12 82.5597 99.92C81.9597 99.72 81.3997 99.4533 80.8797 99.12C80.373 98.7867 79.9464 98.3667 79.5997 97.86C79.253 97.3533 79.0797 96.6933 79.0797 95.88C79.0797 95.1867 79.1997 94.58 79.4397 94.06C79.693 93.5267 80.0397 93.0933 80.4797 92.76C80.933 92.4133 81.473 92.1533 82.0997 91.98C82.7397 91.8067 83.4397 91.72 84.1997 91.72C85.0797 91.72 85.913 91.8 86.6997 91.96C87.4997 92.1067 88.153 92.32 88.6597 92.6L87.7197 95.08C87.5597 94.9867 87.353 94.8933 87.0997 94.8C86.8597 94.6933 86.5797 94.6067 86.2597 94.54C85.9397 94.46 85.5997 94.4 85.2397 94.36C84.8797 94.3067 84.513 94.28 84.1397 94.28C83.473 94.28 82.953 94.4 82.5797 94.64C82.2197 94.8667 82.0397 95.1867 82.0397 95.6C82.0397 96.0133 82.213 96.3467 82.5597 96.6C82.9064 96.84 83.333 97.0667 83.8397 97.28C84.3597 97.48 84.9197 97.6867 85.5197 97.9C86.1197 98.1 86.673 98.3667 87.1797 98.7C87.6997 99.02 88.133 99.4267 88.4797 99.92C88.8264 100.413 88.9997 101.047 88.9997 101.82C88.9997 102.593 88.8664 103.26 88.5997 103.82C88.333 104.38 87.953 104.847 87.4597 105.22C86.9797 105.58 86.3997 105.847 85.7197 106.02C85.0397 106.193 84.293 106.28 83.4797 106.28C82.933 106.28 82.413 106.247 81.9197 106.18C81.4397 106.127 80.993 106.06 80.5797 105.98C80.1664 105.887 79.7997 105.793 79.4797 105.7C79.173 105.593 78.9264 105.493 78.7397 105.4L79.7197 102.9C79.8664 102.98 80.0664 103.067 80.3197 103.16C80.5864 103.253 80.8797 103.347 81.1997 103.44C81.5197 103.52 81.8597 103.587 82.2197 103.64C82.593 103.693 82.9664 103.72 83.3397 103.72C84.2197 103.72 84.8864 103.593 85.3397 103.34C85.8064 103.087 86.0397 102.693 86.0397 102.16ZM101.544 100.22H95.9436V106H92.9836V92H95.9436V97.62H101.544V92H104.504V106H101.544V100.22ZM110.205 93.6H108.605V92H114.765V93.6H113.165V104.4H114.765V106H108.605V104.4H110.205V93.6ZM118.359 99C118.359 97.8533 118.505 96.8267 118.799 95.92C119.092 95.0133 119.512 94.2533 120.059 93.64C120.619 93.0133 121.299 92.54 122.099 92.22C122.899 91.8867 123.805 91.72 124.819 91.72C125.899 91.72 126.839 91.9 127.639 92.26C128.452 92.6067 129.125 93.1 129.659 93.74C130.205 94.38 130.612 95.1467 130.879 96.04C131.159 96.9333 131.299 97.92 131.299 99C131.299 100.147 131.145 101.173 130.839 102.08C130.545 102.987 130.119 103.753 129.559 104.38C128.999 104.993 128.319 105.467 127.519 105.8C126.719 106.12 125.819 106.28 124.819 106.28C123.739 106.28 122.792 106.107 121.979 105.76C121.179 105.4 120.505 104.9 119.959 104.26C119.425 103.62 119.025 102.853 118.759 101.96C118.492 101.067 118.359 100.08 118.359 99ZM121.499 99C121.499 99.6933 121.565 100.327 121.699 100.9C121.832 101.473 122.032 101.967 122.299 102.38C122.565 102.793 122.905 103.113 123.319 103.34C123.745 103.567 124.245 103.68 124.819 103.68C125.872 103.68 126.692 103.32 127.279 102.6C127.865 101.88 128.159 100.68 128.159 99C128.159 98.3333 128.099 97.7133 127.979 97.14C127.859 96.5667 127.659 96.0733 127.379 95.66C127.112 95.2333 126.765 94.9067 126.339 94.68C125.925 94.44 125.419 94.32 124.819 94.32C123.779 94.32 122.965 94.6933 122.379 95.44C121.792 96.1867 121.499 97.3733 121.499 99ZM139.17 98.7L137.97 96.6H137.87L138.19 98.72V106H135.39V91.9H137.53L143.31 99.36L144.45 101.4H144.57L144.25 99.34V92H147.05V106.1H144.91L139.17 98.7Z" fill="black"/>
<path d="M69 126.787C81.7884 123.724 98.7198 121.981 112.438 122.485C115.352 122.592 117.6 122.47 120.533 123.007" stroke="black" stroke-width="3" stroke-linecap="round"/>
</svg>
